<?xml version="1.0" encoding="UTF-8"?>
<svg version="1.1" xmlns="http://www.w3.org/2000/svg" width="279" height="180">
<path d="M0 0 C92.07 0 184.14 0 279 0 C279 59.4 279 118.8 279 180 C186.93 180 94.86 180 0 180 C0 120.6 0 61.2 0 0 Z " fill="#FEFEFE" transform="translate(0,0)"/>
<path d="M0 0 C-0.54723683 3.37462715 -1.0549 5.08235 -3 8 C-3.66 8 -4.32 8 -5 8 C-2.7936574 14.40129662 -0.15457503 18.31321875 5.1953125 22.4921875 C7 24 7 24 9 27 C10.98 26.67 12.96 26.34 15 26 C15.18175781 25.28972656 15.36351562 24.57945313 15.55078125 23.84765625 C15.92783203 22.46900391 15.92783203 22.46900391 16.3125 21.0625 C16.55613281 20.14597656 16.79976562 19.22945312 17.05078125 18.28515625 C17.36402344 17.53105469 17.67726562 16.77695313 18 16 C18.99 15.67 19.98 15.34 21 15 C21.69908321 22.41028201 19.44738145 27.50338538 16 34 C15.42185547 35.40185547 15.42185547 35.40185547 14.83203125 36.83203125 C13 39 13 39 11.0300293 39.3112793 C9.0173435 39.31238724 7.00595874 39.16442285 5 39 C5.11593506 39.57854736 5.23187012 40.15709473 5.35131836 40.75317383 C5.88592227 43.43848314 6.41173271 46.12544712 6.9375 48.8125 C7.11990234 49.72193359 7.30230469 50.63136719 7.49023438 51.56835938 C9.52426038 62.03434771 10.17199008 72.28783945 10.125 82.9375 C10.1237915 83.98494385 10.12258301 85.0323877 10.12133789 86.11157227 C10.08904162 92.49878023 9.86941022 98.77426149 9.12109375 105.12109375 C9.08113281 105.74113281 9.04117188 106.36117187 9 107 C10.1490712 108.2981424 10.1490712 108.2981424 13 109 C13.33 110.98 13.66 112.96 14 115 C12.2984375 114.7215625 12.2984375 114.7215625 10.5625 114.4375 C9.386875 114.293125 8.21125 114.14875 7 114 C6.67 114.33 6.34 114.66 6 115 C5 116 5 116 2.0625 116.1875 C-2.74280335 116.12805295 -7.32606514 115.02946797 -12 114 C-13.66603902 113.66354365 -15.33253931 113.32933832 -17 113 C-17 111.02 -17 109.04 -17 107 C-18.32 107 -19.64 107 -21 107 C-20.36831301 99.33016318 -19.6957087 91.66428635 -19 84 C-18.8875293 82.75976074 -18.77505859 81.51952148 -18.65917969 80.24169922 C-18.30538632 76.40991242 -17.93601171 72.5799108 -17.5625 68.75 C-17.45252686 67.55028564 -17.34255371 66.35057129 -17.22924805 65.11450195 C-16.49790517 57.7975057 -15.12459238 51.03200747 -13 44 C-12.65844742 42.66874844 -12.32208734 41.33609454 -12 40 C-13.7015625 40.0309375 -13.7015625 40.0309375 -15.4375 40.0625 C-19 40 -19 40 -20 39 C-20.52486974 33.12145897 -19.60118935 29.61896149 -17.015625 24.375 C-15.59531712 21.05366464 -15.04519661 17.71912108 -14.4921875 14.1640625 C-14 12 -14 12 -12 9 C-11.62875 7.2365625 -11.62875 7.2365625 -11.25 5.4375 C-10 2 -10 2 -7.125 0.5625 C-4 0 -4 0 0 0 Z " fill="#74BEF0" transform="translate(131,57)"/>
<path d="M0 0 C7.75 -0.125 7.75 -0.125 10 1 C9.48594831 5.96916636 8.76615118 10.29026351 7 15 C7.66 15.061875 8.32 15.12375 9 15.1875 C13.25251423 16.3392226 16.71718316 18.02702205 20 21 C21.40161196 23.6258771 21.74767448 26.05620228 22 29 C22.1546875 30.175625 22.1546875 30.175625 22.3125 31.375 C22.49900862 33.73744253 22.49712952 35.68310278 22 38 C18.49438806 41.78985074 15.18603472 42.22285263 10.25 42.625 C9.30640625 42.65851563 8.3628125 42.69203125 7.390625 42.7265625 C4.81522394 42.76999474 4.81522394 42.76999474 3 45 C2.67 46.32 2.34 47.64 2 49 C-2.95 49.495 -2.95 49.495 -8 50 C-10.28571429 41.57142857 -10.28571429 41.57142857 -10 37 C-10.62648437 36.86722656 -11.25296875 36.73445313 -11.8984375 36.59765625 C-12.71570313 36.42105469 -13.53296875 36.24445313 -14.375 36.0625 C-15.18710938 35.88847656 -15.99921875 35.71445313 -16.8359375 35.53515625 C-19 35 -19 35 -21 34 C-23.71975715 33.92812481 -26.40674632 33.9072138 -29.125 33.9375 C-33.023125 33.9684375 -33.023125 33.9684375 -37 34 C-36.67 28.72 -36.34 23.44 -36 18 C-36.66 18 -37.32 18 -38 18 C-38.33 16.35 -38.66 14.7 -39 13 C-38.01 13.33 -37.02 13.66 -36 14 C-35.34 12.68 -34.68 11.36 -34 10 C-33.34 10 -32.68 10 -32 10 C-32 9.34 -32 8.68 -32 8 C-33.32 7.34 -34.64 6.68 -36 6 C-35.67 5.01 -35.34 4.02 -35 3 C-30.545 2.505 -30.545 2.505 -26 2 C-26 4.64 -26 7.28 -26 10 C-27.65 10 -29.3 10 -31 10 C-31.33 10.99 -31.66 11.98 -32 13 C-32.33 13.66 -32.66 14.32 -33 15 C-33.07116382 17.37402501 -33.08409085 19.75000677 -33.0625 22.125 C-33.05347656 23.40632813 -33.04445312 24.68765625 -33.03515625 26.0078125 C-33.02355469 26.99523437 -33.01195312 27.98265625 -33 29 C-32.01 29 -31.02 29 -30 29 C-30 25.04 -30 21.08 -30 17 C-29.67 17 -29.34 17 -29 17 C-28.95101562 17.71027344 -28.90203125 18.42054687 -28.8515625 19.15234375 C-28.77679688 20.07144531 -28.70203125 20.99054687 -28.625 21.9375 C-28.55539063 22.85402344 -28.48578125 23.77054688 -28.4140625 24.71484375 C-28.27742187 25.46894531 -28.14078125 26.22304688 -28 27 C-27.34 27.33 -26.68 27.66 -26 28 C-25.67 25.36 -25.34 22.72 -25 20 C-24.67 20 -24.34 20 -24 20 C-24 23.3 -24 26.6 -24 30 C-22.7625 29.979375 -21.525 29.95875 -20.25 29.9375 C-17.3359175 29.93233319 -14.79046673 30.06984442 -12 31 C-12.19851562 30.42378906 -12.39703125 29.84757812 -12.6015625 29.25390625 C-13.3048359 25.27558514 -11.18205017 22.23521635 -9 19 C-5.82044075 16.47265803 -2.99633372 15.57090482 1 15 C0.649375 13.824375 0.29875 12.64875 -0.0625 11.4375 C-1.12911598 7.25308347 -0.87522695 4.20108938 0 0 Z " fill="#73BEEF" transform="translate(184,30)"/>
<path d="M0 0 C0.83265381 0.00523682 1.66530762 0.01047363 2.52319336 0.01586914 C3.42231445 0.0190918 4.32143555 0.02231445 5.24780273 0.02563477 C6.66609375 0.03820312 6.66609375 0.03820312 8.11303711 0.05102539 C9.06243164 0.05553711 10.01182617 0.06004883 10.98999023 0.06469727 C13.34356776 0.07652429 15.69702188 0.09300514 18.05053711 0.11352539 C19.1058931 18.78955731 19.16190395 37.4158897 19.05053711 56.11352539 C17.07053711 56.11352539 15.09053711 56.11352539 13.05053711 56.11352539 C11.40053711 44.23352539 9.75053711 32.35352539 8.05053711 20.11352539 C6.14867392 22.01538858 6.42661695 25.30251264 6.11303711 27.85180664 C5.98554077 28.86757027 5.98554077 28.86757027 5.85546875 29.90385437 C5.58310945 32.07742973 5.3164248 34.25164961 5.05053711 36.42602539 C4.78402873 38.58960201 4.51626197 40.75299965 4.24560547 42.9160614 C3.99927751 44.88687481 3.75722671 46.8582214 3.51538086 48.82958984 C3.16048828 51.33676429 2.74066605 53.68395088 2.05053711 56.11352539 C0.07053711 56.11352539 -1.90946289 56.11352539 -3.94946289 56.11352539 C-4.13926708 24.05705729 -4.13926708 24.05705729 -3.51196289 10.11352539 C-3.47272705 9.20199707 -3.43349121 8.29046875 -3.39306641 7.35131836 C-3.02621445 0.17622914 -3.02621445 0.17622914 0 0 Z " fill="#3D354A" transform="translate(181.949462890625,80.886474609375)"/>
<path d="M0 0 C-0.54723683 3.37462715 -1.0549 5.08235 -3 8 C-3.66 8 -4.32 8 -5 8 C-2.7936574 14.40129662 -0.15457503 18.31321875 5.1953125 22.4921875 C7 24 7 24 9 27 C10.98 26.67 12.96 26.34 15 26 C15.18175781 25.28972656 15.36351562 24.57945313 15.55078125 23.84765625 C15.92783203 22.46900391 15.92783203 22.46900391 16.3125 21.0625 C16.55613281 20.14597656 16.79976562 19.22945312 17.05078125 18.28515625 C17.36402344 17.53105469 17.67726562 16.77695313 18 16 C18.99 15.67 19.98 15.34 21 15 C21.69908321 22.41028201 19.44738145 27.50338538 16 34 C15.68804687 34.92941406 15.37609375 35.85882813 15.0546875 36.81640625 C13 39 13 39 10.63891602 39.37573242 C7.55714611 39.45817998 4.5173787 39.38447621 1.4375 39.25 C-0.66786278 39.18893812 -2.77333367 39.13146439 -4.87890625 39.078125 C-5.8129126 39.04106445 -6.74691895 39.00400391 -7.70922852 38.96582031 C-10.03111046 38.83479693 -10.03111046 38.83479693 -12 40 C-15.5625 40.125 -15.5625 40.125 -19 40 C-20 39 -20 39 -20.3125 35.5 C-20.27411423 31.18543981 -18.8989695 28.19474097 -17.015625 24.375 C-15.59531712 21.05366464 -15.04519661 17.71912108 -14.4921875 14.1640625 C-14 12 -14 12 -12 9 C-11.62875 7.2365625 -11.62875 7.2365625 -11.25 5.4375 C-10 2 -10 2 -7.125 0.5625 C-4 0 -4 0 0 0 Z " fill="#E5C53C" transform="translate(131,57)"/>
<path d="M0 0 C1.88311604 3.2819037 2.51389936 6.25135937 3.0703125 9.98046875 C3.24433594 11.14513672 3.41835937 12.30980469 3.59765625 13.50976562 C3.85869141 15.33024414 3.85869141 15.33024414 4.125 17.1875 C4.30675781 18.38181641 4.48851562 19.57613281 4.67578125 20.80664062 C5.62320824 27.27835052 6.21072073 33.46063331 6 40 C7.98 40 9.96 40 12 40 C12.042721 41.66611905 12.04063832 43.33382885 12 45 C9.95301586 47.04698414 5.69588759 46.70045693 3 47 C3 47.99 3 48.98 3 50 C4.32 50.33 5.64 50.66 7 51 C4.56242587 51.02698422 2.12515085 51.04683099 -0.3125 51.0625 C-1.00279297 51.07087891 -1.69308594 51.07925781 -2.40429688 51.08789062 C-5.5483025 51.10307906 -7.99420019 51.00193327 -11 50 C-10.67 49.01 -10.34 48.02 -10 47 C-13.96 46.505 -13.96 46.505 -18 46 C-18 45.34 -18 44.68 -18 44 C-17.030625 43.525625 -16.06125 43.05125 -15.0625 42.5625 C-12.19522563 41.29806053 -12.19522563 41.29806053 -11 40 C-9.00041636 39.95919217 -6.99954746 39.95745644 -5 40 C-4.89042969 38.78828125 -4.78085938 37.5765625 -4.66796875 36.328125 C-3.52791295 24.14301246 -1.92836037 12.08439162 0 0 Z " fill="#F1F0F2" transform="translate(189,97)"/>
<path d="M0 0 C0.66 0 1.32 0 2 0 C3.3271261 3.9813783 3.06915913 7.85045227 3 12 C4.32 12 5.64 12 7 12 C7 10.02 7 8.04 7 6 C7.66 6 8.32 6 9 6 C11.12457907 12.37373721 9.86698134 18.4834692 8.625 24.9375 C8.49899414 25.61264648 8.37298828 26.28779297 8.24316406 26.98339844 C7.89869372 28.67138902 7.45666031 30.33884577 7 32 C6.01 32.495 6.01 32.495 5 33 C7.14576637 33.02685938 9.29162645 33.04633088 11.4375 33.0625 C12.63246094 33.07410156 13.82742187 33.08570313 15.05859375 33.09765625 C17.88873341 33.33901792 17.88873341 33.33901792 19 32 C23.13518078 31.78235891 26.09095455 32.69698485 30 34 C30.495 36.97 30.495 36.97 31 40 C29.2984375 39.7215625 29.2984375 39.7215625 27.5625 39.4375 C26.386875 39.293125 25.21125 39.14875 24 39 C23.67 39.33 23.34 39.66 23 40 C22 41 22 41 19.0625 41.1875 C14.25719665 41.12805295 9.67393486 40.02946797 5 39 C3.33396098 38.66354365 1.66746069 38.32933832 0 38 C0 36.02 0 34.04 0 32 C-1.32 32 -2.64 32 -4 32 C-3.88543872 29.60325733 -3.75871281 27.20818782 -3.625 24.8125 C-3.5940625 24.13896484 -3.563125 23.46542969 -3.53125 22.77148438 C-3.29567946 18.74715428 -2.53373771 15.69055637 -1 12 C-0.72123482 9.9040014 -0.51411256 7.79737389 -0.375 5.6875 C-0.30023438 4.61886719 -0.22546875 3.55023438 -0.1484375 2.44921875 C-0.09945312 1.64097656 -0.05046875 0.83273438 0 0 Z " fill="#72BEF0" transform="translate(114,132)"/>
<path d="M0 0 C3.05305326 1.98362218 4.38276647 3.3991616 5.3125 6.9375 C5.8019931 9.94275995 6.00283758 12.89209872 5.8125 15.9375 C4.69875 16.185 3.585 16.4325 2.4375 16.6875 C-1.87026195 17.74527785 -5.83108871 19.36161355 -9.890625 21.1328125 C-12.1875 21.9375 -12.1875 21.9375 -16.1875 21.9375 C-16.5175 20.6175 -16.8475 19.2975 -17.1875 17.9375 C-19.4975 18.2675 -21.8075 18.5975 -24.1875 18.9375 C-24.1875 18.2775 -24.1875 17.6175 -24.1875 16.9375 C-22.5375 16.9375 -20.8875 16.9375 -19.1875 16.9375 C-19.1875 14.6275 -19.1875 12.3175 -19.1875 9.9375 C-15.8875 10.2675 -12.5875 10.5975 -9.1875 10.9375 C-9.1875 8.6275 -9.1875 6.3175 -9.1875 3.9375 C-11.4975 3.9375 -13.8075 3.9375 -16.1875 3.9375 C-16.1875 3.2775 -16.1875 2.6175 -16.1875 1.9375 C-15.5275 1.9375 -14.8675 1.9375 -14.1875 1.9375 C-14.5175 0.9475 -14.8475 -0.0425 -15.1875 -1.0625 C-8.99385507 -3.51115032 -5.76022504 -3.07212002 0 0 Z " fill="#72BDEF" transform="translate(200.1875,48.0625)"/>
<path d="M0 0 C0 2.64 0 5.28 0 8 C-1.65 8 -3.3 8 -5 8 C-5.33 8.99 -5.66 9.98 -6 11 C-6.33 11.66 -6.66 12.32 -7 13 C-7.07116382 15.37402501 -7.08409085 17.75000677 -7.0625 20.125 C-7.05347656 21.40632813 -7.04445312 22.68765625 -7.03515625 24.0078125 C-7.02355469 24.99523437 -7.01195312 25.98265625 -7 27 C-6.01 27 -5.02 27 -4 27 C-4 23.04 -4 19.08 -4 15 C-3.67 15 -3.34 15 -3 15 C-2.95101562 15.71027344 -2.90203125 16.42054687 -2.8515625 17.15234375 C-2.77679688 18.07144531 -2.70203125 18.99054687 -2.625 19.9375 C-2.55539063 20.85402344 -2.48578125 21.77054688 -2.4140625 22.71484375 C-2.27742187 23.46894531 -2.14078125 24.22304688 -2 25 C-1.34 25.33 -0.68 25.66 0 26 C0.33 23.36 0.66 20.72 1 18 C1.33 18 1.66 18 2 18 C2 21.3 2 24.6 2 28 C3.2375 27.979375 4.475 27.95875 5.75 27.9375 C8.6640825 27.93233319 11.20953327 28.06984442 14 29 C14 28.34 14 27.68 14 27 C15.65 27.33 17.3 27.66 19 28 C18.34 29.98 17.68 31.96 17 34 C10.56031567 34.25253664 10.56031567 34.25253664 7.78125 33 C4.07288815 31.66665641 0.56799227 31.78553848 -3.3125 31.875 C-5.849375 31.91625 -8.38625 31.9575 -11 32 C-10.67 26.72 -10.34 21.44 -10 16 C-10.66 16 -11.32 16 -12 16 C-12.33 14.35 -12.66 12.7 -13 11 C-12.01 11.33 -11.02 11.66 -10 12 C-9.34 10.68 -8.68 9.36 -8 8 C-7.34 8 -6.68 8 -6 8 C-6 7.34 -6 6.68 -6 6 C-7.32 5.34 -8.64 4.68 -10 4 C-9.67 3.01 -9.34 2.02 -9 1 C-5.8035914 -0.06546953 -3.34252724 -0.07427838 0 0 Z " fill="#FCF8ED" transform="translate(158,32)"/>
<path d="M0 0 C2.97 0.495 2.97 0.495 6 1 C6 5.62 6 10.24 6 15 C4.68 15.33 3.36 15.66 2 16 C2 11.38 2 6.76 2 2 C1.34 2 0.68 2 0 2 C-0.33 3.65 -0.66 5.3 -1 7 C-0.34 7 0.32 7 1 7 C1 9.97 1 12.94 1 16 C0.01 16 -0.98 16 -2 16 C-2.33 16.66 -2.66 17.32 -3 18 C-5.28515625 18.6328125 -5.28515625 18.6328125 -8.0625 19.125 C-8.98160156 19.29257813 -9.90070313 19.46015625 -10.84765625 19.6328125 C-11.55792969 19.75398438 -12.26820312 19.87515625 -13 20 C-13 20.66 -13 21.32 -13 22 C-17 21 -17 21 -21 20 C-21 19.01 -21 18.02 -21 17 C-20.01 17 -19.02 17 -18 17 C-17.34 14.69 -16.68 12.38 -16 10 C-15.01 10 -14.02 10 -13 10 C-12.67 10.99 -12.34 11.98 -12 13 C-10.68 13 -9.36 13 -8 13 C-8 12.34 -8 11.68 -8 11 C-8.66 11 -9.32 11 -10 11 C-10.33 10.34 -10.66 9.68 -11 9 C-13.3140622 8.26924352 -15.64828869 7.59861742 -18 7 C-18 6.67 -18 6.34 -18 6 C-13.71 6.33 -9.42 6.66 -5 7 C-5 6.34 -5 5.68 -5 5 C-2.875 2.3125 -2.875 2.3125 0 0 Z " fill="#EDF3E4" transform="translate(82,88)"/>
<path d="M0 0 C-0.2522799 3.11145209 -0.55968294 4.58903741 -2.875 6.75 C-6.79548934 8.31819573 -10.37912074 8.5040744 -14.57421875 8.69140625 C-17.17945068 8.77130484 -17.17945068 8.77130484 -19 11 C-19.33 12.32 -19.66 13.64 -20 15 C-23.3 15.33 -26.6 15.66 -30 16 C-32.28571429 7.57142857 -32.28571429 7.57142857 -32 3 C-28.92677456 2.08941469 -26.19902639 1.91113816 -23 2 C-22.67 3.32 -22.34 4.64 -22 6 C-15.20055606 4.11900137 -15.20055606 4.11900137 -8.75 1.3125 C-5.61207237 -0.18514728 -3.43469832 -0.24533559 0 0 Z " fill="#E7A69E" transform="translate(206,64)"/>
<path d="M0 0 C0.33 0 0.66 0 1 0 C3.23006266 11.4688937 4.42981467 22.31540857 4 34 C4.99 34.33 5.98 34.66 7 35 C6 36 6 36 3.05859375 36.09765625 C1.86363281 36.08605469 0.66867188 36.07445312 -0.5625 36.0625 C-2.35880859 36.04896484 -2.35880859 36.04896484 -4.19140625 36.03515625 C-5.11824219 36.02355469 -6.04507813 36.01195312 -7 36 C-7.33 35.34 -7.66 34.68 -8 34 C-7.01 34 -6.02 34 -5 34 C-4.95174072 33.42459473 -4.90348145 32.84918945 -4.85375977 32.25634766 C-4.21360847 25.23205996 -3.1322714 18.32409446 -1.9375 11.375 C-1.75123047 10.27542969 -1.56496094 9.17585937 -1.37304688 8.04296875 C-0.91835544 5.36145514 -0.46062096 2.68050027 0 0 Z " fill="#F3F7F9" transform="translate(126,130)"/>
<path d="M0 0 C-0.54723683 3.37462715 -1.0549 5.08235 -3 8 C-3.66 8 -4.32 8 -5 8 C-4.68804687 8.60328125 -4.37609375 9.2065625 -4.0546875 9.828125 C-3.66539063 10.62734375 -3.27609375 11.4265625 -2.875 12.25 C-2.48054687 13.03890625 -2.08609375 13.8278125 -1.6796875 14.640625 C-1 17 -1 17 -1.8828125 19.296875 C-2.43582031 20.13992187 -2.43582031 20.13992187 -3 21 C-4.62463842 21.05395478 -6.24978541 21.09277195 -7.875 21.125 C-8.77992187 21.14820312 -9.68484375 21.17140625 -10.6171875 21.1953125 C-13 21 -13 21 -15 19 C-14.69903201 14.86169011 -14.32101984 12.48152976 -12 9 C-11.7525 7.824375 -11.505 6.64875 -11.25 5.4375 C-10 2 -10 2 -7.125 0.5625 C-4 0 -4 0 0 0 Z " fill="#2B1611" transform="translate(131,57)"/>
<path d="M0 0 C0.66 0 1.32 0 2 0 C5.43253617 3.43253617 6.00429285 7.40442855 7 12 C7.33 8.04 7.66 4.08 8 0 C8.66 0.33 9.32 0.66 10 1 C10.33 1.99 10.66 2.98 11 4 C11.66 4 12.32 4 13 4 C13 2.68 13 1.36 13 0 C13.66 0 14.32 0 15 0 C15.495 8.415 15.495 8.415 16 17 C14.123125 16.896875 12.24625 16.79375 10.3125 16.6875 C9.25675781 16.62949219 8.20101562 16.57148437 7.11328125 16.51171875 C3.64433462 15.94154057 1.69410565 15.26461055 -1 13 C-1.70703125 10.30078125 -1.70703125 10.30078125 -1.8125 7.3125 C-1.86019531 6.31863281 -1.90789062 5.32476562 -1.95703125 4.30078125 C-1.97121094 3.54152344 -1.98539063 2.78226563 -2 2 C-1.34 2 -0.68 2 0 2 C0 1.34 0 0.68 0 0 Z " fill="#F7EDBE" transform="translate(156,44)"/>
<path d="M0 0 C1.4540625 0.0309375 1.4540625 0.0309375 2.9375 0.0625 C2.9375 1.3825 2.9375 2.7025 2.9375 4.0625 C6.8975 3.4025 10.8575 2.7425 14.9375 2.0625 C14.9375 1.4025 14.9375 0.7425 14.9375 0.0625 C16.5875 0.0625 18.2375 0.0625 19.9375 0.0625 C19.980221 1.72861905 19.97813832 3.39632885 19.9375 5.0625 C17.89051586 7.10948414 13.63338759 6.76295693 10.9375 7.0625 C10.9375 8.0525 10.9375 9.0425 10.9375 10.0625 C12.2575 10.3925 13.5775 10.7225 14.9375 11.0625 C12.49992587 11.08948422 10.06265085 11.10933099 7.625 11.125 C6.93470703 11.13337891 6.24441406 11.14175781 5.53320312 11.15039062 C2.3891975 11.16557906 -0.05670019 11.06443327 -3.0625 10.0625 C-2.7325 9.0725 -2.4025 8.0825 -2.0625 7.0625 C-4.7025 6.7325 -7.3425 6.4025 -10.0625 6.0625 C-10.0625 5.4025 -10.0625 4.7425 -10.0625 4.0625 C-9.093125 3.588125 -8.12375 3.11375 -7.125 2.625 C-2.0625 0.04209184 -2.0625 0.04209184 0 0 Z " fill="#D4CCC7" transform="translate(181.0625,136.9375)"/>
<path d="M0 0 C0.33 0 0.66 0 1 0 C0.67 11.22 0.34 22.44 0 34 C0.495 31.03 0.495 31.03 1 28 C1.33 28.99 1.66 29.98 2 31 C2.66 31 3.32 31 4 31 C3.85795259 32.58367747 3.71119847 34.16693318 3.5625 35.75 C3.44068359 37.07257813 3.44068359 37.07257813 3.31640625 38.421875 C3.03761535 40.69350452 2.61209423 42.79851823 2 45 C0.02 45 -1.96 45 -4 45 C-4 34.11 -4 23.22 -4 12 C-3.67 12 -3.34 12 -3 12 C-2.67 13.98 -2.34 15.96 -2 18 C-1.34 12.06 -0.68 6.12 0 0 Z " fill="#51475C" transform="translate(182,92)"/>
<path d="M0 0 C0.33 0 0.66 0 1 0 C1 10.89 1 21.78 1 33 C-0.98 33 -2.96 33 -5 33 C-5.66 27.39 -6.32 21.78 -7 16 C-6.34 16 -5.68 16 -5 16 C-5 11.38 -5 6.76 -5 2 C-4.67 2 -4.34 2 -4 2 C-3.67 5.63 -3.34 9.26 -3 13 C-1.55147363 9.37868408 -0.74531357 7.32891674 -0.375 3.6875 C-0.189375 1.8621875 -0.189375 1.8621875 0 0 Z " fill="#312A3E" transform="translate(200,104)"/>
<path d="M0 0 C1.9375 1.3125 1.9375 1.3125 3 3 C3 3.99 3 4.98 3 6 C0.36 6.33 -2.28 6.66 -5 7 C-5 9.64 -5 12.28 -5 15 C-6.32 15.33 -7.64 15.66 -9 16 C-11.95846138 13.04153862 -12.98776958 11.69713406 -13.0625 7.4375 C-10.96246866 0.64328096 -6.81181089 -0.88301252 0 0 Z " fill="#75BCED" transform="translate(130,43)"/>
<path d="M0 0 C0.99 0 1.98 0 3 0 C3 0.66 3 1.32 3 2 C3.66 2 4.32 2 5 2 C5 1.34 5 0.68 5 0 C5.66 0 6.32 0 7 0 C7 3.63 7 7.26 7 11 C1.39 11.66 -4.22 12.32 -10 13 C-9.67 11.35 -9.34 9.7 -9 8 C-8.01 8 -7.02 8 -6 8 C-6 7.01 -6 6.02 -6 5 C-5.01 5 -4.02 5 -3 5 C-3 4.34 -3 3.68 -3 3 C-2.01 3 -1.02 3 0 3 C0 2.01 0 1.02 0 0 Z " fill="#F5D742" transform="translate(205,24)"/>
<path d="M0 0 C3.3 0 6.6 0 10 0 C9.979375 0.928125 9.95875 1.85625 9.9375 2.8125 C9.84230396 6.02286011 9.84230396 6.02286011 11 9 C11.03920815 10.99961564 11.04443347 13.00049364 11 15 C10.34 14.67 9.68 14.34 9 14 C8.01 15.485 8.01 15.485 7 17 C6.34 17 5.68 17 5 17 C4.67 18.32 4.34 19.64 4 21 C2 20 2 20 1.125 17.6875 C1 15 1 15 2.875 12.9375 C3.57625 12.298125 4.2775 11.65875 5 11 C5.7872678 8.8618034 5.7872678 8.8618034 6 7 C4.02 7.33 2.04 7.66 0 8 C0 5.36 0 2.72 0 0 Z " fill="#F0E9C9" transform="translate(125,50)"/>
<path d="M0 0 C0.99773437 0.02320312 1.99546875 0.04640625 3.0234375 0.0703125 C4.52777344 0.09738281 4.52777344 0.09738281 6.0625 0.125 C6.83335937 0.14820312 7.60421875 0.17140625 8.3984375 0.1953125 C8.3984375 3.1653125 8.3984375 6.1353125 8.3984375 9.1953125 C-1.9965625 9.6903125 -1.9965625 9.6903125 -12.6015625 10.1953125 C-12.6015625 9.5353125 -12.6015625 8.8753125 -12.6015625 8.1953125 C-9.1365625 7.7003125 -9.1365625 7.7003125 -5.6015625 7.1953125 C-5.4159375 6.0196875 -5.4159375 6.0196875 -5.2265625 4.8203125 C-4.38971306 1.30554484 -3.66432173 0.27509923 0 0 Z " fill="#72B9E8" transform="translate(191.6015625,71.8046875)"/>
<path d="M0 0 C3.13909195 0.14948057 5.65215264 1.13405088 8.625 2.125 C8.955 4.105 9.285 6.085 9.625 8.125 C8.490625 7.939375 7.35625 7.75375 6.1875 7.5625 C5.011875 7.418125 3.83625 7.27375 2.625 7.125 C2.295 7.455 1.965 7.785 1.625 8.125 C0.625 9.125 0.625 9.125 -2.5625 9.25 C-5.94373925 9.1391397 -9.06097699 8.77163864 -12.375 8.125 C-12.045 7.465 -11.715 6.805 -11.375 6.125 C-8.8125 5.5 -8.8125 5.5 -6.375 5.125 C-9.35741547 4.35178118 -12.35080475 3.71303797 -15.375 3.125 C-15.375 2.795 -15.375 2.465 -15.375 2.125 C-14.52035156 2.06441406 -13.66570312 2.00382813 -12.78515625 1.94140625 C-11.12806641 1.81572266 -11.12806641 1.81572266 -9.4375 1.6875 C-8.33535156 1.60628906 -7.23320312 1.52507812 -6.09765625 1.44140625 C-3.18391488 1.10279355 -2.82737101 0.148809 0 0 Z " fill="#D0CACB" transform="translate(135.375,163.875)"/>
<path d="M0 0 C0 1.65 0 3.3 0 5 C0.515625 4.79375 1.03125 4.5875 1.5625 4.375 C5.04907463 3.8386039 7.67386923 4.93088654 11 6 C14.69005696 7.1531428 18.14534599 7.07412796 22 7 C22.33 6.01 22.66 5.02 23 4 C25.475 4.99 25.475 4.99 28 6 C27.67 6.99 27.34 7.98 27 9 C24.45947886 9.36508677 21.9182372 9.71731457 19.375 10.0625 C18.66214844 10.16626953 17.94929688 10.27003906 17.21484375 10.37695312 C12.8836541 10.95312056 9.32193825 10.92430833 5 10 C1.35223096 9.8002301 1.35223096 9.8002301 -2 11 C-2 10.34 -2 9.68 -2 9 C-3.98 9 -5.96 9 -8 9 C-4.25 7 -4.25 7 -2 7 C-2 5.68 -2 4.36 -2 3 C-3.32 3 -4.64 3 -6 3 C-6 2.34 -6 1.68 -6 1 C-1.125 0 -1.125 0 0 0 Z " fill="#E9E8EA" transform="translate(114,165)"/>
<path d="M0 0 C2.05078125 0.03255208 4.1015625 0.06510417 6.15234375 0.09765625 C6.48234375 2.07765625 6.81234375 4.05765625 7.15234375 6.09765625 C5.83234375 6.42765625 4.51234375 6.75765625 3.15234375 7.09765625 C4.87460871 10.34615602 4.87460871 10.34615602 8.15234375 11.09765625 C8.15234375 11.75765625 8.15234375 12.41765625 8.15234375 13.09765625 C3.69734375 13.59265625 3.69734375 13.59265625 -0.84765625 14.09765625 C-3.23063497 5.31042221 -3.23063497 5.31042221 -2.84765625 1.09765625 C-1.84765625 0.09765625 -1.84765625 0.09765625 0 0 Z " fill="#F4D73D" transform="translate(176.84765625,65.90234375)"/>
<path d="M0 0 C0.99 0 1.98 0 3 0 C3.33 0.99 3.66 1.98 4 3 C5.32 3 6.64 3 8 3 C8.33 2.34 8.66 1.68 9 1 C9.99 1 10.98 1 12 1 C12.125 3.875 12.125 3.875 12 7 C9.23776722 9.76223278 6.79293383 9.57856291 3 10 C3 10.66 3 11.32 3 12 C0.33333333 11.33333333 -2.33333333 10.66666667 -5 10 C-5 9.01 -5 8.02 -5 7 C-4.01 7 -3.02 7 -2 7 C-1.34 4.69 -0.68 2.38 0 0 Z " fill="#F7E690" transform="translate(66,98)"/>
<path d="M0 0 C2.62187494 1.04874998 3.79371361 1.64931313 5.25 4.125 C5.4975 4.74375 5.745 5.3625 6 6 C6.99 6 7.98 6 9 6 C9 6.99 9 7.98 9 9 C8.34 9 7.68 9 7 9 C6.67 10.65 6.34 12.3 6 14 C3.66705225 14.04241723 1.33297433 14.04092937 -1 14 C-2 13 -2 13 -2.1875 9.25 C-2.15615249 5.76415714 -1.57760458 3.15520917 0 0 Z " fill="#F6D747" transform="translate(113,83)"/>
<path d="M0 0 C2.475 0.495 2.475 0.495 5 1 C4.34 2.98 3.68 4.96 3 7 C-3.38603578 7.25043278 -3.38603578 7.25043278 -6.375 6.03125 C-9.26890879 4.89435726 -11.71939594 4.59859788 -14.8125 4.375 C-15.78832031 4.30023438 -16.76414063 4.22546875 -17.76953125 4.1484375 C-18.50558594 4.09945312 -19.24164063 4.05046875 -20 4 C-20 3.01 -20 2.02 -20 1 C-19.34 1 -18.68 1 -18 1 C-18 1.66 -18 2.32 -18 3 C-16.02 2.67 -14.04 2.34 -12 2 C-12 1.67 -12 1.34 -12 1 C-3.42857143 0.85714286 -3.42857143 0.85714286 0 2 C0 1.34 0 0.68 0 0 Z " fill="#E7ADA4" transform="translate(172,59)"/>
<path d="M0 0 C1.71473097 5.1441929 -0.00683939 9.3438266 -2 14.1875 C-2.350625 15.04730469 -2.70125 15.90710938 -3.0625 16.79296875 C-3.66612099 18.21399316 -4.30954092 19.61908185 -5 21 C-5.66 21 -6.32 21 -7 21 C-7 19.35 -7 17.7 -7 16 C-8.32 15.67 -9.64 15.34 -11 15 C-10.01 14.67 -9.02 14.34 -8 14 C-7.67 13.01 -7.34 12.02 -7 11 C-6.34 11 -5.68 11 -5 11 C-4.80664062 10.28972656 -4.61328125 9.57945313 -4.4140625 8.84765625 C-4.15367187 7.92855469 -3.89328125 7.00945312 -3.625 6.0625 C-3.36976563 5.14597656 -3.11453125 4.22945313 -2.8515625 3.28515625 C-2 1 -2 1 0 0 Z " fill="#F5D636" transform="translate(151,72)"/>
<path d="M0 0 C1.8125 1.1875 1.8125 1.1875 3 3 C2.6875 5.6875 2.6875 5.6875 2 8 C1.01 8.33 0.02 8.66 -1 9 C-1.33 9.99 -1.66 10.98 -2 12 C-4.0625 12.6875 -4.0625 12.6875 -6 13 C-6 12.01 -6 11.02 -6 10 C-6.226875 9.030625 -6.45375 8.06125 -6.6875 7.0625 C-7 4 -7 4 -5.8125 1.625 C-4 0 -4 0 0 0 Z " fill="#F3FAFA" transform="translate(103,42)"/>
<path d="M0 0 C0.33 0 0.66 0 1 0 C1.33 4.62 1.66 9.24 2 14 C2.99 14 3.98 14 5 14 C5 10.04 5 6.08 5 2 C5.33 2 5.66 2 6 2 C6.04898438 2.71027344 6.09796875 3.42054687 6.1484375 4.15234375 C6.22320312 5.07144531 6.29796875 5.99054687 6.375 6.9375 C6.44460937 7.85402344 6.51421875 8.77054688 6.5859375 9.71484375 C6.72257813 10.46894531 6.85921875 11.22304688 7 12 C7.66 12.33 8.32 12.66 9 13 C9.33 10.36 9.66 7.72 10 5 C10.33 5 10.66 5 11 5 C11 8.63 11 12.26 11 16 C11.99 16.33 12.98 16.66 14 17 C11.03 17 8.06 17 5 17 C5 16.34 5 15.68 5 15 C4.34 15 3.68 15 3 15 C2.67 16.32 2.34 17.64 2 19 C0.68 19 -0.64 19 -2 19 C-2 16.36 -2 13.72 -2 11 C-1.34 11 -0.68 11 0 11 C0 7.37 0 3.74 0 0 Z " fill="#EDC276" transform="translate(149,45)"/>
<path d="M0 0 C2.125 0.9375 2.125 0.9375 4 2 C3.01 2.495 3.01 2.495 2 3 C2.99 3.33 3.98 3.66 5 4 C6.125 9.75 6.125 9.75 5 12 C-2.75 12.125 -2.75 12.125 -5 11 C-4.67 10.34 -4.34 9.68 -4 9 C-4 8.67 -4 8.34 -4 8 C-4 7.01 -4 6.02 -4 5 C-2.68 5 -1.36 5 0 5 C0 4.34 0 3.68 0 3 C-0.66 3 -1.32 3 -2 3 C-2 2.34 -2 1.68 -2 1 C-1.34 0.67 -0.68 0.34 0 0 Z " fill="#F5D646" transform="translate(139,84)"/>
<path d="M0 0 C7.75 -0.125 7.75 -0.125 10 1 C9.67 3.64 9.34 6.28 9 9 C6.5625 8.625 6.5625 8.625 4 8 C3.67 7.34 3.34 6.68 3 6 C2.67 6.99 2.34 7.98 2 9 C-0.29013653 5.5647952 -0.17842973 4.014669 0 0 Z " fill="#D1928B" transform="translate(184,30)"/>
<path d="M0 0 C0.99 0 1.98 0 3 0 C3 0.66 3 1.32 3 2 C2.34 2 1.68 2 1 2 C0.67 3.65 0.34 5.3 0 7 C-0.66 6.01 -1.32 5.02 -2 4 C-2.33 5.32 -2.66 6.64 -3 8 C-0.03 8.495 -0.03 8.495 3 9 C3 9.66 3 10.32 3 11 C-1.29 11.66 -5.58 12.32 -10 13 C-9.67 11.35 -9.34 9.7 -9 8 C-8.01 8 -7.02 8 -6 8 C-6 7.01 -6 6.02 -6 5 C-5.01 5 -4.02 5 -3 5 C-3 4.34 -3 3.68 -3 3 C-2.01 3 -1.02 3 0 3 C0 2.01 0 1.02 0 0 Z " fill="#F3D94F" transform="translate(205,24)"/>
<path d="M0 0 C0.33 0 0.66 0 1 0 C1.66 9.9 2.32 19.8 3 30 C2.01 30.33 1.02 30.66 0 31 C-0.66 25.39 -1.32 19.78 -2 14 C-1.34 14 -0.68 14 0 14 C0 9.38 0 4.76 0 0 Z " fill="#50475A" transform="translate(195,106)"/>
<path d="M0 0 C4.13949057 -0.11187812 7.07512885 0.69170962 11 2 C11.33 3.98 11.66 5.96 12 8 C5.25 7.25 5.25 7.25 3 5 C2.01 5.33 1.02 5.66 0 6 C0 4.02 0 2.04 0 0 Z " fill="#DCD2D1" transform="translate(133,164)"/>
<path d="M0 0 C1.87751953 0.00676758 1.87751953 0.00676758 3.79296875 0.01367188 C6.86202941 0.02538585 9.93098907 0.04178927 13 0.0625 C13 0.7225 13 1.3825 13 2.0625 C9.0400359 3.38248803 5.25162015 3.20995125 1.125 3.1875 C-0.14307495 3.18459961 -0.14307495 3.18459961 -1.43676758 3.18164062 C-8.32898027 3.13459034 -15.13995696 2.75219912 -22 2.0625 C-22 1.7325 -22 1.4025 -22 1.0625 C-14.65939989 -0.10282027 -7.42007939 -0.0509298 0 0 Z " fill="#DEDCDD" transform="translate(190,146.9375)"/>
<path d="M0 0 C2 3 2 3 3 5 C3.33 4.34 3.66 3.68 4 3 C6.28773563 4.14386782 7.49284711 4.91869363 9 7 C8.6875 10.1875 8.6875 10.1875 8 13 C4.25 14.125 4.25 14.125 2 13 C1.3671875 11.07421875 1.3671875 11.07421875 0.875 8.6875 C0.70742187 7.90761719 0.53984375 7.12773438 0.3671875 6.32421875 C0 4 0 4 0 0 Z " fill="#E6B2AD" transform="translate(183,33)"/>
<path d="M0 0 C0.99 0 1.98 0 3 0 C3 2.64 3 5.28 3 8 C2.34 7.67 1.68 7.34 1 7 C0.01 8.485 0.01 8.485 -1 10 C-1.66 10 -2.32 10 -3 10 C-3.33 11.32 -3.66 12.64 -4 14 C-6 13 -6 13 -6.9375 10.75 C-7 8 -7 8 -4.6875 5.375 C-3.800625 4.59125 -2.91375 3.8075 -2 3 C-1.34 2.01 -0.68 1.02 0 0 Z " fill="#F7F8F3" transform="translate(133,57)"/>
<path d="M0 0 C0.33 0 0.66 0 1 0 C1 8.25 1 16.5 1 25 C1.66 25 2.32 25 3 25 C3.33 23.68 3.66 22.36 4 21 C4 23.31 4 25.62 4 28 C0.7 28 -2.6 28 -6 28 C-5.67 26.68 -5.34 25.36 -5 24 C-3.35 24.33 -1.7 24.66 0 25 C0 16.75 0 8.5 0 0 Z " fill="#84C2EC" transform="translate(136,136)"/>
<path d="M0 0 C0.33 0 0.66 0 1 0 C1.02887814 3.47914941 1.04675687 6.95826831 1.0625 10.4375 C1.07087891 11.43072266 1.07925781 12.42394531 1.08789062 13.44726562 C1.09111328 14.39150391 1.09433594 15.33574219 1.09765625 16.30859375 C1.10289307 17.18314209 1.10812988 18.05769043 1.11352539 18.95874023 C1 21 1 21 0 22 C-0.23363881 23.84891946 -0.41303635 25.70488031 -0.5625 27.5625 C-0.64628906 28.57441406 -0.73007813 29.58632812 -0.81640625 30.62890625 C-0.87699219 31.41136719 -0.93757812 32.19382813 -1 33 C-1.33 33 -1.66 33 -2 33 C-3.05409871 27.07069473 -3.5881975 21.01157788 -3 15 C-2.34 14.34 -1.68 13.68 -1 13 C-0.53513282 9.87803664 -0.53513282 9.87803664 -0.375 6.375 C-0.30023438 5.18648438 -0.22546875 3.99796875 -0.1484375 2.7734375 C-0.09945312 1.85820313 -0.05046875 0.94296875 0 0 Z " fill="#342A40" transform="translate(199,91)"/>
<path d="M0 0 C2.5483674 0.4247279 4.65971725 0.81339333 6.9375 2.0625 C9.68621982 3.3119181 12.01865753 3.13551557 15 3 C15 3.66 15 4.32 15 5 C9.6257283 7.45680992 5.68738639 7.29997403 0 6 C0 4.02 0 2.04 0 0 Z " fill="#C5998E" transform="translate(114,164)"/>
<path d="M0 0 C2.64 0.33 5.28 0.66 8 1 C7.01 1.495 7.01 1.495 6 2 C6.33 4.64 6.66 7.28 7 10 C6.01 10.495 6.01 10.495 5 11 C3.86649466 13.01669827 3.86649466 13.01669827 3 15 C2.49564306 13.0636296 1.99666126 11.12585854 1.5 9.1875 C1.2215625 8.10855469 0.943125 7.02960938 0.65625 5.91796875 C0 3 0 3 0 0 Z " fill="#F9FAF2" transform="translate(135,95)"/>
<path d="M0 0 C1.98 0 3.96 0 6 0 C5.01 0.33 4.02 0.66 3 1 C3 1.99 3 2.98 3 4 C2.01 4 1.02 4 0 4 C-0.33 5.65 -0.66 7.3 -1 9 C-0.01 9.33 0.98 9.66 2 10 C1.34 10 0.68 10 0 10 C0.33 11.32 0.66 12.64 1 14 C0.01 14.33 -0.98 14.66 -2 15 C-2.33 15.66 -2.66 16.32 -3 17 C-3.66 17 -4.32 17 -5 17 C-5.48990279 11.93767116 -3.7106322 7.67369154 -2 3 C-2.66 2.67 -3.32 2.34 -4 2 C-1 1 -1 1 0 1 C0 0.67 0 0.34 0 0 Z " fill="#F7F4EB" transform="translate(196,28)"/>
<path d="M0 0 C0.66 0 1.32 0 2 0 C4.80371825 5.6074365 3.14716286 15.93951695 2 22 C1.34 22.33 0.68 22.66 0 23 C0 15.41 0 7.82 0 0 Z " fill="#312A3E" transform="translate(179,88)"/>
<path d="M0 0 C1.4540625 0.0309375 1.4540625 0.0309375 2.9375 0.0625 C2.6075 2.0425 2.2775 4.0225 1.9375 6.0625 C-2.0225 6.0625 -5.9825 6.0625 -10.0625 6.0625 C-10.0625 5.4025 -10.0625 4.7425 -10.0625 4.0625 C-9.093125 3.588125 -8.12375 3.11375 -7.125 2.625 C-2.0625 0.04209184 -2.0625 0.04209184 0 0 Z " fill="#CBAA67" transform="translate(181.0625,136.9375)"/>
<path d="M0 0 C2.05078125 0.03255208 4.1015625 0.06510417 6.15234375 0.09765625 C6.48234375 2.07765625 6.81234375 4.05765625 7.15234375 6.09765625 C6.16234375 6.42765625 5.17234375 6.75765625 4.15234375 7.09765625 C4.15234375 6.43765625 4.15234375 5.77765625 4.15234375 5.09765625 C3.55421875 5.26265625 2.95609375 5.42765625 2.33984375 5.59765625 C0.15234375 6.09765625 0.15234375 6.09765625 -2.84765625 6.09765625 C-2.89037725 4.4315372 -2.88829457 2.7638274 -2.84765625 1.09765625 C-1.84765625 0.09765625 -1.84765625 0.09765625 0 0 Z " fill="#EED243" transform="translate(176.84765625,65.90234375)"/>
<path d="M0 0 C1.65 0 3.3 0 5 0 C5.042721 1.66611905 5.04063832 3.33382885 5 5 C4 6 4 6 1.49609375 6.09765625 C-0.01791016 6.08025391 -0.01791016 6.08025391 -1.5625 6.0625 C-2.57441406 6.05347656 -3.58632812 6.04445312 -4.62890625 6.03515625 C-5.41136719 6.02355469 -6.19382813 6.01195312 -7 6 C-7 5.34 -7 4.68 -7 4 C-4.69 3.34 -2.38 2.68 0 2 C0 1.34 0 0.68 0 0 Z " fill="#D0AA65" transform="translate(196,137)"/>
<path d="M0 0 C2.31 0 4.62 0 7 0 C7 2.31 7 4.62 7 7 C4.69 7 2.38 7 0 7 C0 4.69 0 2.38 0 0 Z " fill="#C5E5F9" transform="translate(184,52)"/>
<path d="M0 0 C0.66 0.66 1.32 1.32 2 2 C0.35 2 -1.3 2 -3 2 C-0.525 2.99 -0.525 2.99 2 4 C0.58480285 6.0343459 -0.54982123 6.90410393 -2.98046875 7.421875 C-4.98176954 7.66273952 -6.9909944 7.83532741 -9 8 C-8.74438677 5.6568787 -8.40729228 3.32156597 -8 1 C-5.23749964 -0.38125018 -3.05268901 -0.19079306 0 0 Z " fill="#E5E5E5" transform="translate(171,25)"/>
<path d="M0 0 C1.98 0.66 3.96 1.32 6 2 C6 3.98 6 5.96 6 8 C2.37 8.33 -1.26 8.66 -5 9 C-5 8.34 -5 7.68 -5 7 C-3.35 7 -1.7 7 0 7 C0 4.69 0 2.38 0 0 Z " fill="#71B0D9" transform="translate(181,58)"/>
<path d="M0 0 C0.33 0 0.66 0 1 0 C1.33 4.62 1.66 9.24 2 14 C2.66 14 3.32 14 4 14 C3.67 15.98 3.34 17.96 3 20 C3.66 20.33 4.32 20.66 5 21 C2.03 21 -0.94 21 -4 21 C-3.01 20.34 -2.02 19.68 -1 19 C-0.49378487 16.97723319 -0.49378487 16.97723319 -0.48828125 14.6484375 C-0.43510742 13.37226563 -0.43510742 13.37226563 -0.38085938 12.0703125 C-0.35830078 11.18085938 -0.33574219 10.29140625 -0.3125 9.375 C-0.27833984 8.4778125 -0.24417969 7.580625 -0.20898438 6.65625 C-0.12637598 4.43762462 -0.05727281 2.2194006 0 0 Z " fill="#D9D5D5" transform="translate(201,123)"/>
<path d="M0 0 C0.99 0 1.98 0 3 0 C3 0.66 3 1.32 3 2 C2.34 2 1.68 2 1 2 C1 3.32 1 4.64 1 6 C3.31 6.66 5.62 7.32 8 8 C7.67 8.99 7.34 9.98 7 11 C0.125 10.125 0.125 10.125 -1 9 C-1.1328125 7.1875 -1.1328125 7.1875 -1.125 5 C-1.12757812 4.278125 -1.13015625 3.55625 -1.1328125 2.8125 C-1 1 -1 1 0 0 Z " fill="#FBF7DF" transform="translate(85,44)"/>
<path d="M0 0 C-0.25 1.875 -0.25 1.875 -1 4 C-2.8125 5.3125 -2.8125 5.3125 -5 6 C-7.25 5.625 -7.25 5.625 -9 5 C-9 3.68 -9 2.36 -9 1 C-5.8035914 -0.06546953 -3.34252724 -0.07427838 0 0 Z " fill="#F4D948" transform="translate(158,32)"/>
<path d="M0 0 C1.07765625 0.00902344 2.1553125 0.01804687 3.265625 0.02734375 C4.08546875 0.03894531 4.9053125 0.05054687 5.75 0.0625 C5.75 0.7225 5.75 1.3825 5.75 2.0625 C2.78 2.7225 -0.19 3.3825 -3.25 4.0625 C-3.58 3.4025 -3.91 2.7425 -4.25 2.0625 C-5.57 3.0525 -6.89 4.0425 -8.25 5.0625 C-8.91 4.7325 -9.57 4.4025 -10.25 4.0625 C-10.25 3.0725 -10.25 2.0825 -10.25 1.0625 C-6.78777385 -0.00473961 -3.60960734 -0.03923486 0 0 Z " fill="#FCF4DF" transform="translate(74.25,81.9375)"/>
<path d="M0 0 C0.33 0 0.66 0 1 0 C1 10.56 1 21.12 1 32 C0.67 32 0.34 32 0 32 C-0.09087891 30.35451172 -0.09087891 30.35451172 -0.18359375 28.67578125 C-0.26804498 27.22134346 -0.35269066 25.76691695 -0.4375 24.3125 C-0.47681641 23.59126953 -0.51613281 22.87003906 -0.55664062 22.12695312 C-0.73527666 19.11762302 -0.9347553 16.29188421 -1.59375 13.34375 C-2.10441949 10.39757986 -1.66052743 8.10728097 -1.0625 5.1875 C-0.86785156 4.21167969 -0.67320312 3.23585938 -0.47265625 2.23046875 C-0.31667969 1.49441406 -0.16070312 0.75835937 0 0 Z " fill="#6AC0F9" transform="translate(138,120)"/>
<path d="M0 0 C0.33 0 0.66 0 1 0 C1.144375 0.9075 1.28875 1.815 1.4375 2.75 C1.91110522 5.80420322 1.91110522 5.80420322 2.54272461 7.95996094 C3.30678244 11.36864606 2.82796535 14.79589907 2.5625 18.25 C2.51029297 18.99507812 2.45808594 19.74015625 2.40429688 20.5078125 C2.2751783 22.33894861 2.13834886 24.16953813 2 26 C1.67 26 1.34 26 1 26 C0.0197752 20.31160882 -0.11948801 14.82705667 -0.0625 9.0625 C-0.05573242 7.75055664 -0.05573242 7.75055664 -0.04882812 6.41210938 C-0.03714834 4.27470953 -0.01921689 2.13734537 0 0 Z " fill="#544A5D" transform="translate(178,104)"/>
<path d="M0 0 C0.66 0 1.32 0 2 0 C2 4.62 2 9.24 2 14 C1.01 14 0.02 14 -1 14 C-1.02685938 11.85423363 -1.04633088 9.70837355 -1.0625 7.5625 C-1.07410156 6.36753906 -1.08570312 5.17257813 -1.09765625 3.94140625 C-1 1 -1 1 0 0 Z " fill="#F7D949" transform="translate(85,90)"/>
<path d="M0 0 C0 0.66 0 1.32 0 2 C-0.515625 2.45375 -1.03125 2.9075 -1.5625 3.375 C-2.2740625 4.179375 -2.2740625 4.179375 -3 5 C-2.77242269 7.16299211 -2.77242269 7.16299211 -2 9 C0.46800047 7.84826645 2.04783565 6.95216435 4 5 C3.67 6.32 3.34 7.64 3 9 C2.34 9 1.68 9 1 9 C0.67 9.99 0.34 10.98 0 12 C-2.0625 12.6875 -2.0625 12.6875 -4 13 C-4 12.01 -4 11.02 -4 10 C-4.226875 9.030625 -4.45375 8.06125 -4.6875 7.0625 C-5 4 -5 4 -3.6875 1.625 C-2 0 -2 0 0 0 Z " fill="#D8E7F0" transform="translate(101,42)"/>
<path d="M0 0 C-0.99 4.29 -1.98 8.58 -3 13 C-3.33 13 -3.66 13 -4 13 C-4 11.35 -4 9.7 -4 8 C-4.66 8 -5.32 8 -6 8 C-6.33 6.02 -6.66 4.04 -7 2 C-2.25 0 -2.25 0 0 0 Z " fill="#EFF8FB" transform="translate(119,99)"/>
<path d="M0 0 C2.02408755 0.09002398 4.04544287 0.24641038 6.0625 0.4375 C7.71958984 0.59025391 7.71958984 0.59025391 9.41015625 0.74609375 C10.26480469 0.82988281 11.11945313 0.91367187 12 1 C11.01 1.33 10.02 1.66 9 2 C9 5.3 9 8.6 9 12 C8.67 12 8.34 12 8 12 C8 8.7 8 5.4 8 2 C7.34 2 6.68 2 6 2 C6 2.66 6 3.32 6 4 C5.34 4 4.68 4 4 4 C4 3.34 4 2.68 4 2 C3.01 2 2.02 2 1 2 C1 2.99 1 3.98 1 5 C0.01 5 -0.98 5 -2 5 C-1.125 1.125 -1.125 1.125 0 0 Z " fill="#F5EFCF" transform="translate(204,22)"/>
<path d="M0 0 C0.33 0 0.66 0 1 0 C1.33 4.62 1.66 9.24 2 14 C2.99 14.33 3.98 14.66 5 15 C4.34 15 3.68 15 3 15 C2.67 16.32 2.34 17.64 2 19 C0.68 19 -0.64 19 -2 19 C-2 16.36 -2 13.72 -2 11 C-1.34 11 -0.68 11 0 11 C0 7.37 0 3.74 0 0 Z " fill="#F3E395" transform="translate(149,45)"/>
<path d="M0 0 C0.33 0.66 0.66 1.32 1 2 C2.32 2 3.64 2 5 2 C5 4.64 5 7.28 5 10 C2.525 9.01 2.525 9.01 0 8 C0 5.36 0 2.72 0 0 Z " fill="#72BEF5" transform="translate(120,48)"/>
<path d="M0 0 C1.4540625 0.0309375 1.4540625 0.0309375 2.9375 0.0625 C2.0625 4.9375 2.0625 4.9375 0.9375 6.0625 C-0.72867115 6.10313832 -2.39638095 6.105221 -4.0625 6.0625 C-4.105221 4.39638095 -4.10313832 2.72867115 -4.0625 1.0625 C-3.0625 0.0625 -3.0625 0.0625 0 0 Z " fill="#F2D43F" transform="translate(131.0625,50.9375)"/>
<path d="M0 0 C7.75 -0.125 7.75 -0.125 10 1 C10 2.65 10 4.3 10 6 C9.01 6.495 9.01 6.495 8 7 C8 6.01 8 5.02 8 4 C5.36 3.67 2.72 3.34 0 3 C0 2.01 0 1.02 0 0 Z " fill="#5F3E36" transform="translate(184,30)"/>
<path d="M0 0 C0.33 0 0.66 0 1 0 C1.18451025 13.6332574 1.18451025 13.6332574 0 20 C-0.66 19.67 -1.32 19.34 -2 19 C-2.02688151 17.35425434 -2.04634123 15.70838587 -2.0625 14.0625 C-2.07410156 13.14597656 -2.08570313 12.22945312 -2.09765625 11.28515625 C-2 9 -2 9 -1 8 C-0.76924918 6.65252916 -0.58846937 5.29622435 -0.4375 3.9375 C-0.293125 2.638125 -0.14875 1.33875 0 0 Z " fill="#494354" transform="translate(200,104)"/>
<path d="M0 0 C0.99 0 1.98 0 3 0 C3 2.97 3 5.94 3 9 C1.68 9 0.36 9 -1 9 C-1.09765625 2.84765625 -1.09765625 2.84765625 -1 1 C-0.67 0.67 -0.34 0.34 0 0 Z " fill="#F7DC61" transform="translate(66,98)"/>
<path d="M0 0 C2.97 0.495 2.97 0.495 6 1 C6.33 1.99 6.66 2.98 7 4 C7.66 4 8.32 4 9 4 C9 4.66 9 5.32 9 6 C7.68 6 6.36 6 5 6 C5 7.65 5 9.3 5 11 C4.67 11 4.34 11 4 11 C4 8.36 4 5.72 4 3 C2.35 2.67 0.7 2.34 -1 2 C-0.67 1.34 -0.34 0.68 0 0 Z " fill="#FBFAF3" transform="translate(65,95)"/>
<path d="M0 0 C0.33 0.99 0.66 1.98 1 3 C1.66 3 2.32 3 3 3 C3 6.63 3 10.26 3 14 C2.34 14 1.68 14 1 14 C-0.20568053 9.32798795 -0.09382426 4.78503708 0 0 Z " fill="#362D40" transform="translate(192,106)"/>
<path d="M0 0 C0 0.66 0 1.32 0 2 C-2.82411765 2.94137255 -4.52918032 3.11725382 -7.44921875 3.09765625 C-8.29677734 3.09443359 -9.14433594 3.09121094 -10.01757812 3.08789062 C-10.89865234 3.07951172 -11.77972656 3.07113281 -12.6875 3.0625 C-13.58017578 3.05798828 -14.47285156 3.05347656 -15.39257812 3.04882812 C-17.59511987 3.03704983 -19.79752599 3.02060164 -22 3 C-22 2.67 -22 2.34 -22 2 C-20.95199219 1.93941406 -19.90398437 1.87882813 -18.82421875 1.81640625 C-17.44529952 1.73198262 -16.06639395 1.64733553 -14.6875 1.5625 C-13.99720703 1.52318359 -13.30691406 1.48386719 -12.59570312 1.44335938 C-8.23772721 1.16967007 -4.33812166 0 0 0 Z " fill="#E6E6E7" transform="translate(203,147)"/>
<path d="M0 0 C2.86724686 0.57344937 3.8614515 0.8614515 6 3 C4.35 3.33 2.7 3.66 1 4 C1 4.99 1 5.98 1 7 C0.01 7 -0.98 7 -2 7 C-1.125 2.25 -1.125 2.25 0 0 Z " fill="#F5F0E4" transform="translate(170,137)"/>
<path d="M0 0 C1.10844919 3.32534757 0.84454356 5.62182575 0 9 C-0.99 9 -1.98 9 -3 9 C-3.36923077 3.46153846 -3.36923077 3.46153846 -1.5 1.125 C-1.005 0.75375 -0.51 0.3825 0 0 Z " fill="#D47C68" transform="translate(151,72)"/>
<path d="M0 0 C-0.33 2.97 -0.66 5.94 -1 9 C-1.99 9 -2.98 9 -4 9 C-4.75 6.75 -4.75 6.75 -5 4 C-1.75675676 0 -1.75675676 0 0 0 Z " fill="#C17968" transform="translate(131,61)"/>
<path d="M0 0 C1.32 0.33 2.64 0.66 4 1 C4 2.65 4 4.3 4 6 C2.68 6.33 1.36 6.66 0 7 C-0.66 5.68 -1.32 4.36 -2 3 C-1.34 3 -0.68 3 0 3 C0 2.01 0 1.02 0 0 Z " fill="#F9F4CD" transform="translate(108,32)"/>
<path d="M0 0 C0 1.65 0 3.3 0 5 C-0.99 5.495 -0.99 5.495 -2 6 C-2.66 7.32 -3.32 8.64 -4 10 C-4.33 7.03 -4.66 4.06 -5 1 C-2 0 -2 0 0 0 Z " fill="#EFF9FC" transform="translate(142,100)"/>
<path d="M0 0 C0.99 0 1.98 0 3 0 C3 2.97 3 5.94 3 9 C2.01 9 1.02 9 0 9 C0 6.03 0 3.06 0 0 Z " fill="#F7D84B" transform="translate(80,95)"/>
<path d="M0 0 C0 1.98 0 3.96 0 6 C-1.32 6.33 -2.64 6.66 -4 7 C-4.33 5.35 -4.66 3.7 -5 2 C-1.125 0 -1.125 0 0 0 Z " fill="#E19F98" transform="translate(191,40)"/>
<path d="M0 0 C1.65 0.33 3.3 0.66 5 1 C4.34 2.98 3.68 4.96 3 7 C1.35 7 -0.3 7 -2 7 C-2.33 6.34 -2.66 5.68 -3 5 C-1.35 4.34 0.3 3.68 2 3 C2 2.34 2 1.68 2 1 C1.34 0.67 0.68 0.34 0 0 Z " fill="#DAA8A0" transform="translate(172,59)"/>
<path d="M0 0 C0.99 0.66 1.98 1.32 3 2 C2.34 4.64 1.68 7.28 1 10 C0.01 9.67 -0.98 9.34 -2 9 C-1.67 7.35 -1.34 5.7 -1 4 C-0.34 4 0.32 4 1 4 C1 3.34 1 2.68 1 2 C0.34 1.67 -0.32 1.34 -1 1 C-0.67 0.67 -0.34 0.34 0 0 Z " fill="#F7D453" transform="translate(147,80)"/>
<path d="M0 0 C0.66 0.33 1.32 0.66 2 1 C2 3.31 2 5.62 2 8 C1.67 7.34 1.34 6.68 1 6 C0.34 5.855625 -0.32 5.71125 -1 5.5625 C-1.66 5.376875 -2.32 5.19125 -3 5 C-3.33 4.01 -3.66 3.02 -4 2 C-2.125 0.9375 -2.125 0.9375 0 0 Z " fill="#E5B68A" transform="translate(184,71)"/>
<path d="M0 0 C0.33 0 0.66 0 1 0 C0.95875 0.721875 0.9175 1.44375 0.875 2.1875 C1.00921305 5.20729369 1.75170619 7.26935729 3 10 C1.68 9.67 0.36 9.34 -1 9 C-2.0326802 6.21176345 -2.04509293 5.1322726 -1.0625 2.25 C-0.711875 1.5075 -0.36125 0.765 0 0 Z " fill="#39241A" transform="translate(118,68)"/>
<path d="M0 0 C2.01920337 1.30406884 4.01924973 2.63823419 6 4 C6 4.33 6 4.66 6 5 C1.53160785 5.21278058 -1.82262526 4.59138085 -6 3 C-4 2 -2 1 0 0 Z " fill="#D3A9A8" transform="translate(194,67)"/>
<path d="M0 0 C2.05078125 0.03255208 4.1015625 0.06510417 6.15234375 0.09765625 C6.15234375 1.08765625 6.15234375 2.07765625 6.15234375 3.09765625 C2.77734375 3.22265625 2.77734375 3.22265625 -0.84765625 3.09765625 C-1.50765625 2.43765625 -2.16765625 1.77765625 -2.84765625 1.09765625 C-1.84765625 0.09765625 -1.84765625 0.09765625 0 0 Z " fill="#C4BFBE" transform="translate(185.84765625,143.90234375)"/>
<path d="M0 0 C0.99 0 1.98 0 3 0 C3 3.3 3 6.6 3 10 C2.34 9.67 1.68 9.34 1 9 C1 7.02 1 5.04 1 3 C0.01 2.67 -0.98 2.34 -2 2 C-1.34 2 -0.68 2 0 2 C0 1.34 0 0.68 0 0 Z " fill="#FAF4D8" transform="translate(77,96)"/>
<path d="M0 0 C2.4375 0.8125 2.4375 0.8125 5 2 C5.33 2.99 5.66 3.98 6 5 C5.34 5.66 4.68 6.32 4 7 C2.35 5.68 0.7 4.36 -1 3 C-0.67 2.01 -0.34 1.02 0 0 Z " fill="#F6F5E8" transform="translate(130,71)"/>
<path d="M0 0 C0.66 0.33 1.32 0.66 2 1 C2.8125 4.375 2.8125 4.375 3 8 C1.51171875 9.7265625 1.51171875 9.7265625 0 11 C-0.19406478 9.35492782 -0.38007935 7.70890406 -0.5625 6.0625 C-0.66691406 5.14597656 -0.77132812 4.22945312 -0.87890625 3.28515625 C-0.91886719 2.53105469 -0.95882812 1.77695312 -1 1 C-0.67 0.67 -0.34 0.34 0 0 Z " fill="#F3F5D0" transform="translate(173,41)"/>
<path d="M0 0 C1.485 0.99 1.485 0.99 3 2 C5.00720923 1.71325582 7.0085944 1.38133299 9 1 C9.66 1.33 10.32 1.66 11 2 C11 2.66 11 3.32 11 4 C7.37 4 3.74 4 0 4 C0 2.68 0 1.36 0 0 Z " fill="#92C7EA" transform="translate(110,160)"/>
<path d="M0 0 C0.33 0 0.66 0 1 0 C1.33 5.28 1.66 10.56 2 16 C1.01 16.33 0.02 16.66 -1 17 C-0.67 11.39 -0.34 5.78 0 0 Z " fill="#6C637A" transform="translate(196,120)"/>
<path d="M0 0 C1.4800841 0.11362262 2.95910074 0.24122908 4.4375 0.375 C5.26121094 0.44460937 6.08492188 0.51421875 6.93359375 0.5859375 C7.95646484 0.79089844 7.95646484 0.79089844 9 1 C9.33 1.66 9.66 2.32 10 3 C9.34 3 8.68 3 8 3 C8 3.66 8 4.32 8 5 C5.33333333 4.33333333 2.66666667 3.66666667 0 3 C0 2.01 0 1.02 0 0 Z " fill="#F8EEAC" transform="translate(61,105)"/>
<path d="M0 0 C3 3 3 3 3.29296875 5.04296875 C3.1953125 7.02864583 3.09765625 9.01432292 3 11 C2.01 10.67 1.02 10.34 0 10 C0 6.7 0 3.4 0 0 Z " fill="#FDF6F4" transform="translate(156,48)"/>
<path d="M0 0 C2.475 0.495 2.475 0.495 5 1 C5 2.32 5 3.64 5 5 C3.35 5 1.7 5 0 5 C0 3.35 0 1.7 0 0 Z " fill="#74BCEB" transform="translate(154,26)"/>
<path d="M0 0 C2.31 0 4.62 0 7 0 C7 1.32 7 2.64 7 4 C4.69 3.67 2.38 3.34 0 3 C0 2.01 0 1.02 0 0 Z " fill="#F9FAF0" transform="translate(61,108)"/>
<path d="M0 0 C-1.65 1.65 -3.3 3.3 -5 5 C-5.99 4.67 -6.98 4.34 -8 4 C-8 3.01 -8 2.02 -8 1 C-5.29120665 -0.35439668 -2.99066732 -0.06501451 0 0 Z " fill="#FAFDF2" transform="translate(77,107)"/>
<path d="M0 0 C1.32 0 2.64 0 4 0 C4 1.65 4 3.3 4 5 C2.02 5.33 0.04 5.66 -2 6 C-1.34 4.02 -0.68 2.04 0 0 Z " fill="#B9D9F5" transform="translate(177,60)"/>
<path d="M0 0 C-1.485 1.98 -1.485 1.98 -3 4 C-6.3 3.34 -9.6 2.68 -13 2 C-13 1.67 -13 1.34 -13 1 C-8.60563789 0.14256349 -4.47427924 -0.08948558 0 0 Z " fill="#FBF6E2" transform="translate(211,35)"/>
<path d="M0 0 C2.01920337 1.30406884 4.01924973 2.63823419 6 4 C6 4.33 6 4.66 6 5 C3.36 5 0.72 5 -2 5 C-2.33 4.34 -2.66 3.68 -3 3 C-2.01 2.01 -1.02 1.02 0 0 Z " fill="#F7D549" transform="translate(126,88)"/>
<path d="M0 0 C-1.39789678 2.79579355 -3.2628997 3.59807058 -6 5 C-6.66 4.67 -7.32 4.34 -8 4 C-8 3.01 -8 2.02 -8 1 C-5.10765685 0.17361624 -3.11257569 0 0 0 Z " fill="#F3EEAC" transform="translate(72,82)"/>
<path d="M0 0 C0.66 0 1.32 0 2 0 C1.71905418 1.8141927 1.42493567 3.62635001 1.125 5.4375 C0.88136719 6.95150391 0.88136719 6.95150391 0.6328125 8.49609375 C0.42398438 9.32238281 0.21515625 10.14867188 0 11 C-0.99 11.495 -0.99 11.495 -2 12 C-2.33 10.68 -2.66 9.36 -3 8 C-2.01 7.67 -1.02 7.34 0 7 C0 4.69 0 2.38 0 0 Z " fill="#F5F1E1" transform="translate(115,71)"/>
<path d="M0 0 C0.99 0 1.98 0 3 0 C3 0.66 3 1.32 3 2 C2.34 2 1.68 2 1 2 C0.67 3.98 0.34 5.96 0 8 C0.99 8.33 1.98 8.66 3 9 C2.01 9.33 1.02 9.66 0 10 C-1 9 -1 9 -1.1328125 7.1875 C-1.13023438 6.465625 -1.12765625 5.74375 -1.125 5 C-1.12757812 4.278125 -1.13015625 3.55625 -1.1328125 2.8125 C-1 1 -1 1 0 0 Z " fill="#F0EFB0" transform="translate(85,44)"/>
<path d="M0 0 C0.99 0.33 1.98 0.66 3 1 C3.6875 3.0625 3.6875 3.0625 4 5 C2.68 5.33 1.36 5.66 0 6 C-0.38218767 4.34385343 -0.71395102 2.67542976 -1 1 C-0.67 0.67 -0.34 0.34 0 0 Z " fill="#F4F9FA" transform="translate(176,42)"/>
<path d="M0 0 C0.7425 0.45375 1.485 0.9075 2.25 1.375 C4.44874794 2.67426015 6.71569364 3.85784682 9 5 C6.03 5 3.06 5 0 5 C0 3.35 0 1.7 0 0 Z " fill="#361B15" transform="translate(114,165)"/>
<path d="M0 0 C0.556875 0.28875 1.11375 0.5775 1.6875 0.875 C4.08494645 2.0413253 6.51596939 3.0339881 9 4 C9 4.33 9 4.66 9 5 C6 5 3 5 0 5 C0 3.35 0 1.7 0 0 Z " fill="#341A17" transform="translate(133,165)"/>
<path d="M0 0 C0.99 0.33 1.98 0.66 3 1 C3.96070434 3.88211302 4.10581883 5.69850044 4.0625 8.6875 C4.05347656 9.49574219 4.04445312 10.30398437 4.03515625 11.13671875 C4.02355469 11.75160156 4.01195312 12.36648437 4 13 C3.67 13 3.34 13 3 13 C3 10.36 3 7.72 3 5 C2.34 5 1.68 5 1 5 C0.67 3.35 0.34 1.7 0 0 Z " fill="#F6FBE3" transform="translate(145,43)"/>
<path d="M0 0 C-0.33 2.31 -0.66 4.62 -1 7 C-1.33 5.68 -1.66 4.36 -2 3 C-3.32 3 -4.64 3 -6 3 C-6 2.34 -6 1.68 -6 1 C-1.125 0 -1.125 0 0 0 Z " fill="#D1C8C9" transform="translate(114,165)"/>
<path d="M0 0 C1.5 1.375 1.5 1.375 3 3 C3 3.66 3 4.32 3 5 C3.66 5 4.32 5 5 5 C5.33 4.34 5.66 3.68 6 3 C6 3.99 6 4.98 6 6 C3.69 6.33 1.38 6.66 -1 7 C-0.67 4.69 -0.34 2.38 0 0 Z " fill="#F7EEE2" transform="translate(161,53)"/>
<path d="M0 0 C1.9451 2.91765 2.45276317 4.62537285 3 8 C1.68 8.33 0.36 8.66 -1 9 C-0.67 6.03 -0.34 3.06 0 0 Z " fill="#89C3E9" transform="translate(134,95)"/>
<path d="M0 0 C0.99 0 1.98 0 3 0 C3 1.98 3 3.96 3 6 C2.01 6 1.02 6 0 6 C0 4.02 0 2.04 0 0 Z " fill="#F3D73C" transform="translate(75,99)"/>
<path d="M0 0 C0.33 0.66 0.66 1.32 1 2 C1.66 2 2.32 2 3 2 C3 2.66 3 3.32 3 4 C2.34 4 1.68 4 1 4 C1 4.66 1 5.32 1 6 C-0.32 5.34 -1.64 4.68 -3 4 C-2.01 2.68 -1.02 1.36 0 0 Z " fill="#FAF8E3" transform="translate(147,90)"/>
<path d="M0 0 C0.99 0 1.98 0 3 0 C2.67 2.64 2.34 5.28 2 8 C1.34 8 0.68 8 0 8 C0 5.36 0 2.72 0 0 Z " fill="#DDEDD8" transform="translate(125,50)"/>
<path d="M0 0 C0.66 0 1.32 0 2 0 C2 0.66 2 1.32 2 2 C1.484375 2.45375 0.96875 2.9075 0.4375 3.375 C-0.2740625 4.179375 -0.2740625 4.179375 -1 5 C-0.77242269 7.16299211 -0.77242269 7.16299211 0 9 C-0.99 8.67 -1.98 8.34 -3 8 C-2.25 2.25 -2.25 2.25 0 0 Z " fill="#C8DFEE" transform="translate(99,42)"/>
<path d="M0 0 C2.625 0.9375 2.625 0.9375 5 2 C4.67 2.66 4.34 3.32 4 4 C1.03 3.505 1.03 3.505 -2 3 C-2 2.34 -2 1.68 -2 1 C-1.34 0.67 -0.68 0.34 0 0 Z " fill="#D2CAC9" transform="translate(116,169)"/>
<path d="M0 0 C1.65 0 3.3 0 5 0 C5.66 1.65 6.32 3.3 7 5 C4.11562221 3.70700306 2.12780579 2.34058637 0 0 Z " fill="#C87B65" transform="translate(133,164)"/>
<path d="M0 0 C0.66 0.33 1.32 0.66 2 1 C1.45276317 4.37462715 0.9451 6.08235 -1 9 C-1.09765625 2.84765625 -1.09765625 2.84765625 -1 1 C-0.67 0.67 -0.34 0.34 0 0 Z " fill="#3D364C" transform="translate(198,123)"/>
<path d="M0 0 C1.2380014 3.57644848 0.74926071 6.33694766 0 10 C-0.99 8.68 -1.98 7.36 -3 6 C-2.01 4.02 -1.02 2.04 0 0 Z " fill="#2F263A" transform="translate(188,98)"/>
<path d="M0 0 C0 2.31 0 4.62 0 7 C-0.99 6.67 -1.98 6.34 -3 6 C-3 4.35 -3 2.7 -3 1 C-1 0 -1 0 0 0 Z " fill="#F4F0EE" transform="translate(148,73)"/>
<path d="M0 0 C1.65 0 3.3 0 5 0 C4.67 0.99 4.34 1.98 4 3 C1.9375 3.6875 1.9375 3.6875 0 4 C0 2.68 0 1.36 0 0 Z " fill="#E8A194" transform="translate(200,64)"/>
<path d="M0 0 C0.99 0 1.98 0 3 0 C2.625 2.4375 2.625 2.4375 2 5 C1.01 5.495 1.01 5.495 0 6 C-1.125 2.25 -1.125 2.25 0 0 Z " fill="#2A0F10" transform="translate(128,57)"/>
</svg>
