<?xml version="1.0" encoding="UTF-8"?>
<svg version="1.1" xmlns="http://www.w3.org/2000/svg" width="279" height="180">
<path d="M0 0 C0 0.66 0 1.32 0 2 C0.66 2 1.32 2 2 2 C2 2.99 2 3.98 2 5 C2.66 5.33 3.32 5.66 4 6 C3.91266424 7.60517097 3.80447776 9.20921662 3.6875 10.8125 C3.62949219 11.70582031 3.57148438 12.59914063 3.51171875 13.51953125 C3 16 3 16 1.49609375 17.5 C-0.63516494 19.63682333 -0.53273458 21.21403701 -0.625 24.1875 C-0.49812287 29.81487376 1.28528464 32.51828493 5.17578125 36.44140625 C7.12414428 38.16852927 7.12414428 38.16852927 10 40 C13.3566285 37.76224766 13.57996014 37.06679952 14.6875 33.375 C14.93886719 32.55773437 15.19023437 31.74046875 15.44921875 30.8984375 C15.63097656 30.27195313 15.81273437 29.64546875 16 29 C17.65 29 19.3 29 21 29 C21.1953125 35.0546875 21.1953125 35.0546875 21 37 C20.34 37.66 19.68 38.32 19 39 C18.49070753 40.39915513 18.03854592 41.81961765 17.625 43.25 C16.29133486 47.36379296 14.8898056 50.69736502 12 54 C7 55.5 7 55.5 4 54 C4.19625977 54.51336914 4.39251953 55.02673828 4.59472656 55.55566406 C6.87477856 61.88665506 7.9785651 68.07821354 8.75 74.75 C8.87922852 75.85875488 9.00845703 76.96750977 9.14160156 78.10986328 C10.54027439 91.79742037 11.86087817 108.66205901 8 122 C9.32 122.66 10.64 123.32 12 124 C12 125.65 12 127.3 12 129 C8.04 129 4.08 129 0 129 C-1.54120366 124.05530493 -2.45437347 119.28048716 -3 114.125 C-3.66577896 108.30918541 -4.57968087 102.68127651 -6 97 C-6.12117188 97.96679688 -6.24234375 98.93359375 -6.3671875 99.9296875 C-6.61855469 101.88261719 -6.61855469 101.88261719 -6.875 103.875 C-6.96160889 104.55594727 -7.04821777 105.23689453 -7.13745117 105.93847656 C-7.768834 110.72952477 -8.67784431 115.37307297 -9.92578125 120.046875 C-9.95027344 120.69140625 -9.97476563 121.3359375 -10 122 C-9.01990128 123.01951288 -8.01916396 124.01953847 -7 125 C-7 126.32 -7 127.64 -7 129 C-10.66666667 129 -14.33333333 129 -18 129 C-19.75 127 -19.75 127 -21 125 C-20.505 124.01 -20.505 124.01 -20 123 C-20.66 122.67 -21.32 122.34 -22 122 C-22.2236569 113.46376179 -21.95539394 105.23226608 -20.84985352 96.76855469 C-20.20930309 91.86263363 -19.71634987 86.96213064 -19.29589844 82.0324707 C-18.50439745 72.80850365 -17.26790891 63.99603866 -15 55 C-15.969375 54.855625 -16.93875 54.71125 -17.9375 54.5625 C-21 54 -21 54 -22 53 C-21.55023014 46.0285671 -19.93834993 39.68941415 -18 33 C-17.83371094 32.28972656 -17.66742188 31.57945313 -17.49609375 30.84765625 C-17 29 -17 29 -15.5625 26.25 C-13.76157122 22.50406814 -12.90733929 19.04812913 -12 15 C-12.99 14.67 -13.98 14.34 -15 14 C-15.16802051 12.54182203 -15.33437143 11.0834516 -15.5 9.625 C-15.5928125 8.81289063 -15.685625 8.00078125 -15.78125 7.1640625 C-16 5 -16 5 -16 3 C-6.12 -2.89 -6.12 -2.89 0 0 Z " fill="#72BDEF" transform="translate(132,43)"/>
<path d="M0 0 C2.54978948 0 5.05358577 0.09803961 7.59375 0.3125 C8.59375 2.3125 8.59375 2.3125 8.09375 5.1875 C7.62955969 8.08868942 7.65297046 9.59469244 8.59375 12.3125 C4.90167071 14.77388619 1.3830999 15.19829956 -2.90625 15.875 C-8.72640686 16.7839055 -8.72640686 16.7839055 -14.40625 18.3125 C-14.27911807 20.25095871 -14.27911807 20.25095871 -13.40625 22.3125 C-11.19982948 23.708085 -11.19982948 23.708085 -8.53125 24.75 C-4.42223275 26.67262148 -2.03164176 27.86976251 -0.40625 32.3125 C0.28125 35.125 0.28125 35.125 0.59375 38.3125 C0.68140625 38.96734375 0.7690625 39.6221875 0.859375 40.296875 C1.03125 42.375 1.03125 42.375 0.59375 46.3125 C-0.39625 46.993125 -1.38625 47.67375 -2.40625 48.375 C-4.16069629 49.53074805 -4.16069629 49.53074805 -5.40625 51.3125 C-5.81639403 54.11598231 -5.81639403 54.11598231 -5.66015625 57.4296875 C-5.64868057 58.07373032 -5.6372049 58.71777313 -5.62538147 59.3813324 C-5.57447833 61.69289947 -5.49339352 64.00201534 -5.40625 66.3125 C-5.37247253 67.22712006 -5.33869507 68.14174011 -5.30389404 69.08407593 C-4.97639241 77.64096277 -4.58702082 86.19509325 -4.18530273 94.7487793 C-4.033437 98.01068425 -3.88929466 101.27286106 -3.74609375 104.53515625 C-3.69718491 105.52894791 -3.64827606 106.52273956 -3.59788513 107.54664612 C-3.39349221 112.29586322 -3.35832465 116.6353662 -4.40625 121.3125 C-7.86847615 122.37973961 -11.04664266 122.41423486 -14.65625 122.375 C-15.73390625 122.36597656 -16.8115625 122.35695313 -17.921875 122.34765625 C-19.15164062 122.33025391 -19.15164062 122.33025391 -20.40625 122.3125 C-19.27125606 119.02101757 -18.41341624 118.3165131 -15.28125 116.5625 C-14.3325 116.15 -13.38375 115.7375 -12.40625 115.3125 C-12.88311832 111.27055871 -13.36315136 107.2289993 -13.84375 103.1875 C-13.97845703 102.04539062 -14.11316406 100.90328125 -14.25195312 99.7265625 C-14.38408203 98.61796875 -14.51621094 97.509375 -14.65234375 96.3671875 C-14.77279053 95.35124512 -14.8932373 94.33530273 -15.01733398 93.28857422 C-15.41021608 90.28215066 -15.89015313 87.30001926 -16.40625 84.3125 C-18.64818655 94.44891526 -20.62974145 104.9041838 -20.40625 115.3125 C-21.06625 115.3125 -21.72625 115.3125 -22.40625 115.3125 C-22.40625 117.2925 -22.40625 119.2725 -22.40625 121.3125 C-27.35625 121.3125 -32.30625 121.3125 -37.40625 121.3125 C-36.41625 119.9925 -35.42625 118.6725 -34.40625 117.3125 C-33.08625 117.3125 -31.76625 117.3125 -30.40625 117.3125 C-29.67883287 105.88522001 -29.09541581 94.45960943 -28.73876953 83.0144043 C-28.68298539 81.31463828 -28.62063572 79.61507701 -28.55224609 77.91577148 C-28.45221936 75.41676232 -28.37232546 72.91782569 -28.296875 70.41796875 C-28.26265442 69.6607402 -28.22843384 68.90351166 -28.19317627 68.12333679 C-28.08929206 63.81641445 -28.4063445 61.46328128 -31.40625 58.3125 C-32.97456388 54.09398726 -33.68753621 49.81307943 -33.40625 45.3125 C-33.97472656 45.26351562 -34.54320312 45.21453125 -35.12890625 45.1640625 C-40.11634255 44.68113878 -44.57842821 43.69187766 -49.40625 42.3125 C-52.39861594 41.880216 -55.39434193 41.57202949 -58.40625 41.3125 C-59.39875545 35.60559366 -59.51102512 30.09841511 -59.40625 24.3125 C-58.74625 24.3125 -58.08625 24.3125 -57.40625 24.3125 C-57.07625 23.6525 -56.74625 22.9925 -56.40625 22.3125 C-55.74625 25.6125 -55.08625 28.9125 -54.40625 32.3125 C-54.426875 31.36375 -54.4475 30.415 -54.46875 29.4375 C-54.40625 26.3125 -54.40625 26.3125 -53.40625 24.3125 C-50.84375 23.6875 -50.84375 23.6875 -48.40625 23.3125 C-48.40625 24.3025 -48.40625 25.2925 -48.40625 26.3125 C-47.74625 25.6525 -47.08625 24.9925 -46.40625 24.3125 C-45.74625 25.6325 -45.08625 26.9525 -44.40625 28.3125 C-44.40625 26.6625 -44.40625 25.0125 -44.40625 23.3125 C-43.74625 23.3125 -43.08625 23.3125 -42.40625 23.3125 C-42.40625 22.3225 -42.40625 21.3325 -42.40625 20.3125 C-41.74625 20.3125 -41.08625 20.3125 -40.40625 20.3125 C-40.17838542 22.265625 -39.95052083 24.21875 -39.72265625 26.171875 C-39.41288274 28.26762663 -38.95435324 30.26747613 -38.40625 32.3125 C-38.41785156 31.68601562 -38.42945313 31.05953125 -38.44140625 30.4140625 C-38.45042969 29.59679687 -38.45945313 28.77953125 -38.46875 27.9375 C-38.48035156 27.12539063 -38.49195313 26.31328125 -38.50390625 25.4765625 C-38.40625 23.3125 -38.40625 23.3125 -37.40625 21.3125 C-36.41625 21.3125 -35.42625 21.3125 -34.40625 21.3125 C-34.07625 22.3025 -33.74625 23.2925 -33.40625 24.3125 C-32.74625 23.9825 -32.08625 23.6525 -31.40625 23.3125 C-29.40625 23.3125 -27.40625 23.3125 -25.40625 23.3125 C-24.74625 22.9825 -24.08625 22.6525 -23.40625 22.3125 C-23.49003906 21.64863281 -23.57382813 20.98476563 -23.66015625 20.30078125 C-24.67162786 11.53042619 -24.67162786 11.53042619 -23.40625 7.3125 C-14.28625 7.1605 -14.28625 7.1605 -11.40625 8.3125 C-10.91125 9.3025 -10.91125 9.3025 -10.40625 10.3125 C-6.70057416 6.85101526 -6.70057416 6.85101526 -4.21875 2.5 C-2.40625 0.3125 -2.40625 0.3125 0 0 Z M-12.40625 12.3125 C-12.73625 13.6325 -13.06625 14.9525 -13.40625 16.3125 C-12.74625 16.3125 -12.08625 16.3125 -11.40625 16.3125 C-11.73625 14.9925 -12.06625 13.6725 -12.40625 12.3125 Z M-50.40625 30.3125 C-50.40625 31.9625 -50.40625 33.6125 -50.40625 35.3125 C-49.41625 34.9825 -48.42625 34.6525 -47.40625 34.3125 C-48.06625 32.9925 -48.72625 31.6725 -49.40625 30.3125 C-49.73625 30.3125 -50.06625 30.3125 -50.40625 30.3125 Z M-21.40625 34.3125 C-21.40625 34.9725 -21.40625 35.6325 -21.40625 36.3125 C-20.74625 36.3125 -20.08625 36.3125 -19.40625 36.3125 C-19.40625 35.6525 -19.40625 34.9925 -19.40625 34.3125 C-20.06625 34.3125 -20.72625 34.3125 -21.40625 34.3125 Z M-17.40625 78.3125 C-16.40625 80.3125 -16.40625 80.3125 -16.40625 80.3125 Z " fill="#74BBEC" transform="translate(206.40625,21.6875)"/>
<path d="M0 0 C0.87454834 0.00523682 1.74909668 0.01047363 2.65014648 0.01586914 C3.59438477 0.0190918 4.53862305 0.02231445 5.51147461 0.02563477 C6.50469727 0.03401367 7.49791992 0.04239258 8.52124023 0.05102539 C9.51833008 0.05553711 10.51541992 0.06004883 11.54272461 0.06469727 C14.01478872 0.07652532 16.48673541 0.0930069 18.95874023 0.11352539 C19.96271482 6.16851616 20.27760838 12.17683287 20.52905273 18.30493164 C20.57440155 19.36840317 20.61975037 20.43187469 20.66647339 21.52757263 C20.76069345 23.76732841 20.85303388 26.00716395 20.94360352 28.24707031 C21.08342833 31.66839339 21.23368459 35.08915666 21.38452148 38.51000977 C21.47500203 40.69162407 21.56486666 42.87326403 21.65405273 45.05493164 C21.69982452 46.07381973 21.74559631 47.09270782 21.79275513 48.14247131 C21.97801363 52.95340142 22.02318715 57.37858912 20.95874023 62.11352539 C17.49651409 63.180765 14.31834757 63.21526025 10.70874023 63.17602539 C9.63108398 63.16700195 8.55342773 63.15797852 7.44311523 63.14868164 C6.62327148 63.13708008 5.80342773 63.12547852 4.95874023 63.11352539 C6.09373418 59.82204296 6.95157399 59.11753849 10.08374023 57.36352539 C11.03249023 56.95102539 11.98124023 56.53852539 12.95874023 56.11352539 C12.48187191 52.0715841 12.00183888 48.03002469 11.52124023 43.98852539 C11.3865332 42.84641602 11.25182617 41.70430664 11.11303711 40.52758789 C10.9809082 39.41899414 10.8487793 38.31040039 10.71264648 37.16821289 C10.59219971 36.15227051 10.47175293 35.13632813 10.34765625 34.08959961 C9.95477416 31.08317605 9.47483711 28.10104465 8.95874023 25.11352539 C6.71680368 35.24994066 4.73524878 45.70520919 4.95874023 56.11352539 C4.29874023 56.11352539 3.63874023 56.11352539 2.95874023 56.11352539 C2.95874023 58.09352539 2.95874023 60.07352539 2.95874023 62.11352539 C-1.99125977 62.11352539 -6.94125977 62.11352539 -12.04125977 62.11352539 C-11.05125977 60.79352539 -10.06125977 59.47352539 -9.04125977 58.11352539 C-7.72125977 58.11352539 -6.40125977 58.11352539 -5.04125977 58.11352539 C-4.1242342 44.527302 -3.74590545 30.95783391 -3.48901367 17.3449707 C-3.4376128 14.6843861 -3.3803952 12.02397557 -3.32250977 9.36352539 C-3.30893433 8.54706543 -3.29535889 7.73060547 -3.28137207 6.8894043 C-3.13086217 0.17412402 -3.13086217 0.17412402 0 0 Z M7.95874023 19.11352539 C8.95874023 21.11352539 8.95874023 21.11352539 8.95874023 21.11352539 Z " fill="#362E40" transform="translate(181.041259765625,80.886474609375)"/>
<path d="M0 0 C0 0.66 0 1.32 0 2 C0.66 2 1.32 2 2 2 C2 2.99 2 3.98 2 5 C2.66 5.33 3.32 5.66 4 6 C3.91266424 7.60517097 3.80447776 9.20921662 3.6875 10.8125 C3.62949219 11.70582031 3.57148438 12.59914063 3.51171875 13.51953125 C3 16 3 16 1.49609375 17.5 C-0.63516494 19.63682333 -0.53273458 21.21403701 -0.625 24.1875 C-0.49812287 29.81487376 1.28528464 32.51828493 5.17578125 36.44140625 C7.12414428 38.16852927 7.12414428 38.16852927 10 40 C13.3566285 37.76224766 13.57996014 37.06679952 14.6875 33.375 C14.93886719 32.55773437 15.19023437 31.74046875 15.44921875 30.8984375 C15.63097656 30.27195313 15.81273437 29.64546875 16 29 C17.65 29 19.3 29 21 29 C21.1953125 35.0546875 21.1953125 35.0546875 21 37 C20.34 37.66 19.68 38.32 19 39 C18.49070753 40.39915513 18.03854592 41.81961765 17.625 43.25 C16.29133486 47.36379296 14.8898056 50.69736502 12 54 C9 55.125 9 55.125 6 55 C5.41734375 54.35289063 4.8346875 53.70578125 4.234375 53.0390625 C1.24871321 50.31438513 -0.76442276 50.40942309 -4.75 50.25 C-6.50570312 50.16492188 -6.50570312 50.16492188 -8.296875 50.078125 C-9.63492188 50.03945312 -9.63492188 50.03945312 -11 50 C-11 50.99 -11 51.98 -11 53 C-11.99 53 -12.98 53 -14 53 C-14 53.66 -14 54.32 -14 55 C-20.875 54.125 -20.875 54.125 -22 53 C-21.55023014 46.0285671 -19.93834993 39.68941415 -18 33 C-17.83371094 32.28972656 -17.66742188 31.57945313 -17.49609375 30.84765625 C-17 29 -17 29 -15.5625 26.25 C-13.76157122 22.50406814 -12.90733929 19.04812913 -12 15 C-12.99 14.67 -13.98 14.34 -15 14 C-15.16802051 12.54182203 -15.33437143 11.0834516 -15.5 9.625 C-15.5928125 8.81289063 -15.685625 8.00078125 -15.78125 7.1640625 C-16 5 -16 5 -16 3 C-6.12 -2.89 -6.12 -2.89 0 0 Z " fill="#F0D141" transform="translate(132,43)"/>
<path d="M0 0 C0.66 0 1.32 0 2 0 C2.22786458 1.953125 2.45572917 3.90625 2.68359375 5.859375 C2.99336726 7.95512663 3.45189676 9.95497613 4 12 C3.98839844 11.37351562 3.97679687 10.74703125 3.96484375 10.1015625 C3.95582031 9.28429688 3.94679687 8.46703125 3.9375 7.625 C3.92589844 6.81289063 3.91429687 6.00078125 3.90234375 5.1640625 C4 3 4 3 5 1 C5.99 1 6.98 1 8 1 C8.33 1.99 8.66 2.98 9 4 C9.66 3.67 10.32 3.34 11 3 C11.99 3.66 12.98 4.32 14 5 C13.01 6.485 13.01 6.485 12 8 C11.34 8 10.68 8 10 8 C9.01 11.3 8.02 14.6 7 18 C8.98 18.33 10.96 18.66 13 19 C13.33 19.99 13.66 20.98 14 22 C13.01 22.99 12.02 23.98 11 25 C14.96 24.505 14.96 24.505 19 24 C19.495 26.97 19.495 26.97 20 30 C19.34 30 18.68 30 18 30 C18 30.99 18 31.98 18 33 C18.99 33.33 19.98 33.66 21 34 C20.67 34.99 20.34 35.98 20 37 C18.15234375 37.73046875 18.15234375 37.73046875 15.9375 38.1875 C15.20402344 38.34605469 14.47054687 38.50460938 13.71484375 38.66796875 C13.14894531 38.77753906 12.58304688 38.88710937 12 39 C8.55580866 29.58997722 8.55580866 29.58997722 9 25 C8.14728516 24.92652344 8.14728516 24.92652344 7.27734375 24.8515625 C2.28990745 24.36863878 -2.17217821 23.37937766 -7 22 C-9.99236594 21.567716 -12.98809193 21.25952949 -16 21 C-16.99250545 15.29309366 -17.10477512 9.78591511 -17 4 C-16.34 4 -15.68 4 -15 4 C-14.67 3.34 -14.34 2.68 -14 2 C-13.34 5.3 -12.68 8.6 -12 12 C-12.020625 11.05125 -12.04125 10.1025 -12.0625 9.125 C-12 6 -12 6 -11 4 C-8.4375 3.375 -8.4375 3.375 -6 3 C-6 3.99 -6 4.98 -6 6 C-5.34 5.34 -4.68 4.68 -4 4 C-3.34 5.32 -2.68 6.64 -2 8 C-2 6.35 -2 4.7 -2 3 C-1.34 3 -0.68 3 0 3 C0 2.01 0 1.02 0 0 Z M-8 10 C-8 11.65 -8 13.3 -8 15 C-7.01 14.67 -6.02 14.34 -5 14 C-5.66 12.68 -6.32 11.36 -7 10 C-7.33 10 -7.66 10 -8 10 Z " fill="#E4AC9F" transform="translate(164,42)"/>
<path d="M0 0 C0.87454834 0.00523682 1.74909668 0.01047363 2.65014648 0.01586914 C3.59438477 0.0190918 4.53862305 0.02231445 5.51147461 0.02563477 C6.50469727 0.03401367 7.49791992 0.04239258 8.52124023 0.05102539 C9.51833008 0.05553711 10.51541992 0.06004883 11.54272461 0.06469727 C14.01478872 0.07652532 16.48673541 0.0930069 18.95874023 0.11352539 C18.95874023 0.77352539 18.95874023 1.43352539 18.95874023 2.11352539 C18.29874023 2.11352539 17.63874023 2.11352539 16.95874023 2.11352539 C16.95874023 2.77352539 16.95874023 3.43352539 16.95874023 4.11352539 C12.08374023 3.23852539 12.08374023 3.23852539 10.95874023 2.11352539 C9.26732368 2.20315601 7.57914422 2.35930215 5.89624023 2.55102539 C4.97713867 2.65286133 4.05803711 2.75469727 3.11108398 2.85961914 C2.04567383 2.98530273 2.04567383 2.98530273 0.95874023 3.11352539 C0.95874023 3.77352539 0.95874023 4.43352539 0.95874023 5.11352539 C1.61874023 5.11352539 2.27874023 5.11352539 2.95874023 5.11352539 C4.95874023 5.11352539 6.95874023 5.11352539 8.95874023 5.11352539 C9.28874023 5.77352539 9.61874023 6.43352539 9.95874023 7.11352539 C10.94874023 6.78352539 11.93874023 6.45352539 12.95874023 6.11352539 C12.62874023 7.43352539 12.29874023 8.75352539 11.95874023 10.11352539 C12.61874023 10.11352539 13.27874023 10.11352539 13.95874023 10.11352539 C14.38839065 15.71840646 14.81556886 21.32346847 15.24047852 26.92871094 C15.38531001 28.83468693 15.5308115 30.74061214 15.67700195 32.64648438 C15.88727047 35.38927271 16.09511213 38.13223593 16.30249023 40.87524414 C16.36811157 41.72438889 16.43373291 42.57353363 16.50134277 43.44841003 C16.79385121 47.34668332 17.04221426 51.20068059 16.95874023 55.11352539 C14.45910495 51.36407246 14.41123382 48.09170868 14.10717773 43.72680664 C14.04341949 42.90979782 13.97966125 42.092789 13.91397095 41.25102234 C13.71235706 38.64324062 13.52290601 36.03473673 13.33374023 33.42602539 C13.19912401 31.65708409 13.06371689 29.88820278 12.92749023 28.11938477 C12.59539463 23.78474093 12.27420374 19.4494101 11.95874023 15.11352539 C10.30874023 15.77352539 8.65874023 16.43352539 6.95874023 17.11352539 C6.62874023 20.74352539 6.29874023 24.37352539 5.95874023 28.11352539 C4.63874023 27.45352539 3.31874023 26.79352539 1.95874023 26.11352539 C1.90339111 26.81437256 1.84804199 27.51521973 1.79101562 28.23730469 C1.53749297 31.42546424 1.27941247 34.61323912 1.02124023 37.80102539 C0.93422852 38.90381836 0.8472168 40.00661133 0.75756836 41.14282227 C0.67055664 42.20952148 0.58354492 43.2762207 0.49389648 44.37524414 C0.41534424 45.35452881 0.33679199 46.33381348 0.25585938 47.34277344 C-0.02715383 49.981982 -0.47651143 52.52147532 -1.04125977 55.11352539 C-1.37125977 55.11352539 -1.70125977 55.11352539 -2.04125977 55.11352539 C-3.22150256 44.85831777 -3.19451778 34.627643 -3.17163086 24.31884766 C-3.16620074 21.39423609 -3.17164028 18.46977334 -3.17797852 15.54516602 C-3.17731892 13.68904588 -3.17604022 11.83292585 -3.17407227 9.97680664 C-3.1760965 9.10091385 -3.17812073 8.22502106 -3.1802063 7.32258606 C-3.15211704 0.17530611 -3.15211704 0.17530611 0 0 Z " fill="#4A4056" transform="translate(181.041259765625,80.886474609375)"/>
<path d="M0 0 C2.54978948 0 5.05358577 0.09803961 7.59375 0.3125 C8.59375 2.3125 8.59375 2.3125 8.09375 5.1875 C7.62955969 8.08868942 7.65297046 9.59469244 8.59375 12.3125 C4.90167071 14.77388619 1.3830999 15.19829956 -2.90625 15.875 C-8.72640686 16.7839055 -8.72640686 16.7839055 -14.40625 18.3125 C-14.220625 19.116875 -14.035 19.92125 -13.84375 20.75 C-13.699375 21.595625 -13.555 22.44125 -13.40625 23.3125 C-14.40625 24.3125 -14.40625 24.3125 -17.34375 24.5 C-20.40625 24.3125 -20.40625 24.3125 -22.40625 22.3125 C-23.07421875 20.10546875 -23.07421875 20.10546875 -23.59375 17.5 C-23.77292969 16.64792969 -23.95210937 15.79585937 -24.13671875 14.91796875 C-24.4239998 12.14091864 -24.08805665 10.00587804 -23.40625 7.3125 C-14.28625 7.1605 -14.28625 7.1605 -11.40625 8.3125 C-11.07625 8.9725 -10.74625 9.6325 -10.40625 10.3125 C-6.70057416 6.85101526 -6.70057416 6.85101526 -4.21875 2.5 C-2.40625 0.3125 -2.40625 0.3125 0 0 Z M-12.40625 12.3125 C-12.73625 13.6325 -13.06625 14.9525 -13.40625 16.3125 C-12.74625 16.3125 -12.08625 16.3125 -11.40625 16.3125 C-11.73625 14.9925 -12.06625 13.6725 -12.40625 12.3125 Z " fill="#F4D545" transform="translate(206.40625,21.6875)"/>
<path d="M0 0 C0.33 0 0.66 0 1 0 C1.33 3.96 1.66 7.92 2 12 C2.99 10.68 3.98 9.36 5 8 C6.9375 8.75 6.9375 8.75 9 10 C9.75 12.125 9.75 12.125 10 14 C10.33 12.02 10.66 10.04 11 8 C13.27803779 11.41705669 13.17869839 12.14216602 12.75 16.0625 C12.5953125 17.51849609 12.5953125 17.51849609 12.4375 19.00390625 C11.89728672 22.70340256 11.07088451 26.29472646 10.109375 29.90625 C10.07328125 30.5971875 10.0371875 31.288125 10 32 C10.97348849 33.02582658 11.97443736 34.02623346 13 35 C13 36.32 13 37.64 13 39 C9.33333333 39 5.66666667 39 2 39 C0.25 37 0.25 37 -1 35 C-0.67 34.34 -0.34 33.68 0 33 C-0.66 32.67 -1.32 32.34 -2 32 C-2.28435784 21.14700916 -1.47317858 10.74631163 0 0 Z " fill="#74BBE9" transform="translate(112,133)"/>
<path d="M0 0 C1.32 0.33 2.64 0.66 4 1 C4 5.62 4 10.24 4 15 C0.18078259 16.52768697 -1.68333406 17.23122071 -5.5 17.5 C-9.03694443 17.83213482 -11.72811887 18.57379541 -15 20 C-17.65358664 20.73322789 -20.32058361 21.36420628 -23 22 C-23.33 20.35 -23.66 18.7 -24 17 C-22.35 16.67 -20.7 16.34 -19 16 C-19.33 14.02 -19.66 12.04 -20 10 C-19.01 9.34 -18.02 8.68 -17 8 C-14 9 -14 9 -13 11 C-12.01 11.33 -11.02 11.66 -10 12 C-10 11.34 -10 10.68 -10 10 C-9.01 10 -8.02 10 -7 10 C-7 9.34 -7 8.68 -7 8 C-6.21625 7.38125 -5.4325 6.7625 -4.625 6.125 C-2.13770844 4.11147826 -1.14461734 2.91357141 0 0 Z M-6 9 C-5 11 -5 11 -5 11 Z " fill="#F4D94B" transform="translate(84,88)"/>
<path d="M0 0 C-0.1875 2.25 -0.1875 2.25 -1 5 C-1.825 5.598125 -2.65 6.19625 -3.5 6.8125 C-6.29166739 9.25520896 -6.34660067 9.65668253 -6.65625 13.13671875 C-6.7696875 14.41160156 -6.883125 15.68648437 -7 17 C-10.43744412 17.16783262 -13.87496378 17.33406544 -17.3125 17.5 C-18.28896484 17.54769531 -19.26542969 17.59539062 -20.27148438 17.64453125 C-21.20927734 17.68964844 -22.14707031 17.73476562 -23.11328125 17.78125 C-23.97735596 17.82314453 -24.84143066 17.86503906 -25.73168945 17.90820312 C-27.48662304 17.97922401 -29.24362992 18 -31 18 C-28.53721199 15.53721199 -26.29323018 15.00228745 -23 14 C-23 13.34 -23 12.68 -23 12 C-23.66 11.67 -24.32 11.34 -25 11 C-25 10.01 -25 9.02 -25 8 C-24.34 8 -23.68 8 -23 8 C-23 7.34 -23 6.68 -23 6 C-21.906875 5.896875 -20.81375 5.79375 -19.6875 5.6875 C-15.87713346 4.97709268 -15.38262908 4.70753305 -13 2 C-8.63308079 -0.37061328 -4.84821346 -0.16434622 0 0 Z " fill="#BFAEB8" transform="translate(207,64)"/>
<path d="M0 0 C0 0.66 0 1.32 0 2 C0.66 2 1.32 2 2 2 C2 2.99 2 3.98 2 5 C2.66 5.33 3.32 5.66 4 6 C3.93999894 7.6260287 3.8512115 9.25101549 3.75 10.875 C3.68039063 12.23238281 3.68039063 12.23238281 3.609375 13.6171875 C3 16 3 16 0.953125 17.3203125 C0.30859375 17.54460938 -0.3359375 17.76890625 -1 18 C-1 16.68 -1 15.36 -1 14 C-7.435 14.495 -7.435 14.495 -14 15 C-16.35333796 10.29332409 -16.17102038 8.1306114 -16 3 C-6.12 -2.89 -6.12 -2.89 0 0 Z " fill="#77C0F2" transform="translate(132,43)"/>
<path d="M0 0 C0 1.65 0 3.3 0 5 C-0.66 5 -1.32 5 -2 5 C-2.33 5.99 -2.66 6.98 -3 8 C-3.66 8 -4.32 8 -5 8 C-4.68804687 8.68707031 -4.37609375 9.37414062 -4.0546875 10.08203125 C-3.66539063 10.98308594 -3.27609375 11.88414063 -2.875 12.8125 C-2.48054687 13.70582031 -2.08609375 14.59914063 -1.6796875 15.51953125 C-1.45539063 16.33808594 -1.23109375 17.15664062 -1 18 C-1.66 18.99 -2.32 19.98 -3 21 C-7.85000134 21.88614956 -12.61905865 21.26113102 -17 19 C-16.5096148 16.44999697 -15.77677299 14.57295703 -14.5625 12.25 C-12.76157122 8.50406814 -11.90733929 5.04812913 -11 1 C-7.2735915 -0.04702186 -3.86986958 -0.07442057 0 0 Z " fill="#331A14" transform="translate(131,57)"/>
<path d="M0 0 C0.79921875 0.00902344 1.5984375 0.01804688 2.421875 0.02734375 C3.02515625 0.03894531 3.6284375 0.05054688 4.25 0.0625 C4.25 0.7225 4.25 1.3825 4.25 2.0625 C3.59 2.0625 2.93 2.0625 2.25 2.0625 C2.58 3.0525 2.91 4.0425 3.25 5.0625 C2.26 5.5575 2.26 5.5575 1.25 6.0625 C2.24 6.7225 3.23 7.3825 4.25 8.0625 C5.33875763 10.97414898 5.3578649 13.72768666 5.3125 16.8125 C5.30347656 17.61171875 5.29445312 18.4109375 5.28515625 19.234375 C5.27355469 19.83765625 5.26195312 20.4409375 5.25 21.0625 C4.59 21.0625 3.93 21.0625 3.25 21.0625 C3.25 19.7425 3.25 18.4225 3.25 17.0625 C0.94 17.0625 -1.37 17.0625 -3.75 17.0625 C-4.08 15.7425 -4.41 14.4225 -4.75 13.0625 C-7.39 12.7325 -10.03 12.4025 -12.75 12.0625 C-11.875 5.3125 -11.875 5.3125 -10.75 3.0625 C-10.09 3.0625 -9.43 3.0625 -8.75 3.0625 C-8.75 2.4025 -8.75 1.7425 -8.75 1.0625 C-5.75519083 0.1901588 -3.11424089 -0.04579766 0 0 Z M0.25 9.0625 C0.25 9.7225 0.25 10.3825 0.25 11.0625 C0.91 11.0625 1.57 11.0625 2.25 11.0625 C2.25 10.4025 2.25 9.7425 2.25 9.0625 C1.59 9.0625 0.93 9.0625 0.25 9.0625 Z " fill="#70BCEC" transform="translate(184.75,46.9375)"/>
<path d="M0 0 C0.66 0 1.32 0 2 0 C2.72054048 5.66138945 3.38273804 11.32644329 4 17 C2.125 17.625 2.125 17.625 0 18 C-0.66 17.34 -1.32 16.68 -2 16 C-2.99 16 -3.98 16 -5 16 C-5.66 14.35 -6.32 12.7 -7 11 C-7.33 12.65 -7.66 14.3 -8 16 C-8.99 16 -9.98 16 -11 16 C-11.66 17.32 -12.32 18.64 -13 20 C-13.99 20 -14.98 20 -16 20 C-17.12862175 14.63904667 -17.09688221 9.44693314 -17 4 C-16.34 4 -15.68 4 -15 4 C-14.67 3.34 -14.34 2.68 -14 2 C-13.34 5.3 -12.68 8.6 -12 12 C-12.020625 11.05125 -12.04125 10.1025 -12.0625 9.125 C-12 6 -12 6 -11 4 C-8.4375 3.375 -8.4375 3.375 -6 3 C-6 3.99 -6 4.98 -6 6 C-5.34 5.34 -4.68 4.68 -4 4 C-3.34 5.32 -2.68 6.64 -2 8 C-2 6.35 -2 4.7 -2 3 C-1.34 3 -0.68 3 0 3 C0 2.01 0 1.02 0 0 Z " fill="#E6C868" transform="translate(164,42)"/>
<path d="M0 0 C2.03120707 3.04681061 2.24659875 3.60118324 2.1953125 7.01171875 C2.18886719 7.76904297 2.18242187 8.52636719 2.17578125 9.30664062 C2.15902344 10.09232422 2.14226562 10.87800781 2.125 11.6875 C2.11597656 12.48478516 2.10695312 13.28207031 2.09765625 14.10351562 C2.07411585 16.069139 2.03824547 18.03460775 2 20 C4.51083114 18.74458443 4.87125446 17.49936512 6 15 C6 17.64 6 20.28 6 23 C7.32 23.66 8.64 24.32 10 25 C10 26.65 10 28.3 10 30 C6.04 30 2.08 30 -2 30 C-2.67258667 27.66836622 -3.33847444 25.3347961 -4 23 C-4.185625 22.3709375 -4.37125 21.741875 -4.5625 21.09375 C-5.0837209 18.59933571 -5.09600223 16.29616964 -5.0625 13.75 C-5.05347656 12.85796875 -5.04445312 11.9659375 -5.03515625 11.046875 C-5.02355469 10.37140625 -5.01195312 9.6959375 -5 9 C-3.68 8.67 -2.36 8.34 -1 8 C-0.67 5.36 -0.34 2.72 0 0 Z " fill="#6FBCF0" transform="translate(134,142)"/>
<path d="M0 0 C0.99 0.99 1.98 1.98 3 3 C3.66 2.34 4.32 1.68 5 1 C5 7.27 5 13.54 5 20 C4.34 20 3.68 20 3 20 C3 21.98 3 23.96 3 26 C-1.95 26 -6.9 26 -12 26 C-11.01 24.68 -10.02 23.36 -9 22 C-7.68 22 -6.36 22 -5 22 C-4.67 16.39 -4.34 10.78 -4 5 C-1.23776722 7.76223278 -1.42143709 10.20706617 -1 14 C-0.67 9.38 -0.34 4.76 0 0 Z " fill="#322B3B" transform="translate(181,117)"/>
<path d="M0 0 C8.57142857 -0.14285714 8.57142857 -0.14285714 12 1 C11.835 2.093125 11.67 3.18625 11.5 4.3125 C10.93281816 7.87525873 10.93281816 7.87525873 11 11 C10.34 11 9.68 11 9 11 C9.185625 11.804375 9.37125 12.60875 9.5625 13.4375 C9.706875 14.283125 9.85125 15.12875 10 16 C9 17 9 17 6.0625 17.1875 C3 17 3 17 1 15 C0.33203125 12.79296875 0.33203125 12.79296875 -0.1875 10.1875 C-0.36667969 9.33542969 -0.54585937 8.48335937 -0.73046875 7.60546875 C-1.0177498 4.82841864 -0.68180665 2.69337804 0 0 Z " fill="#CD9188" transform="translate(183,29)"/>
<path d="M0 0 C0 -0.66 0 -1.32 0 -2 C0.66 -2 1.32 -2 2 -2 C3.125 3.75 3.125 3.75 2 6 C1.76779697 9.6267902 1.60467385 13.24712812 1.48242188 16.87890625 C1.21391369 22.78608631 1.21391369 22.78608631 -1 25 C-2.72293135 20.53665816 -3.22240791 16.89798769 -3.125 12.125 C-3.10695312 10.97257812 -3.08890625 9.82015625 -3.0703125 8.6328125 C-3.03550781 7.32957031 -3.03550781 7.32957031 -3 6 C-3.66 6 -4.32 6 -5 6 C-5 5.01 -5 4.02 -5 3 C-5.99 3.33 -6.98 3.66 -8 4 C-8 3.01 -8 2.02 -8 1 C-10.64 1.66 -13.28 2.32 -16 3 C-16 2.34 -16 1.68 -16 1 C-16.66 0.67 -17.32 0.34 -18 0 C-12.80188598 -5.19811402 -5.78682882 -3.30675933 0 0 Z " fill="#393145" transform="translate(198,85)"/>
<path d="M0 0 C1.65 0 3.3 0 5 0 C5.1953125 6.0546875 5.1953125 6.0546875 5 8 C4.34 8.66 3.68 9.32 3 10 C2.44471389 11.43819103 1.95062801 12.90066269 1.5 14.375 C0.56291909 17.42051297 -0.50725068 20.18179223 -2 23 C-2.99 22.67 -3.98 22.34 -5 22 C-4.01 18.535 -4.01 18.535 -3 15 C-4.32 15.33 -5.64 15.66 -7 16 C-7.66 14.68 -8.32 13.36 -9 12 C-9.66 12 -10.32 12 -11 12 C-12.78305524 9.36107824 -13.99059621 7.02821137 -15 4 C-14.34 4 -13.68 4 -13 4 C-11.4921875 5.53125 -11.4921875 5.53125 -9.875 7.5 C-9.33617187 8.1496875 -8.79734375 8.799375 -8.2421875 9.46875 C-7.62730469 10.22671875 -7.62730469 10.22671875 -7 11 C-4.32423308 9.99382318 -3.2214892 9.45785454 -1.953125 6.8359375 C-1.72109375 6.02382812 -1.4890625 5.21171875 -1.25 4.375 C-1.00765625 3.55773437 -0.7653125 2.74046875 -0.515625 1.8984375 C-0.34546875 1.27195312 -0.1753125 0.64546875 0 0 Z " fill="#F1D24B" transform="translate(148,72)"/>
<path d="M0 0 C0.33 1.98 0.66 3.96 1 6 C0.34 6 -0.32 6 -1 6 C-1 6.99 -1 7.98 -1 9 C-0.01 9.33 0.98 9.66 2 10 C1.67 10.99 1.34 11.98 1 13 C-0.84765625 13.73046875 -0.84765625 13.73046875 -3.0625 14.1875 C-3.79597656 14.34605469 -4.52945313 14.50460938 -5.28515625 14.66796875 C-5.85105469 14.77753906 -6.41695312 14.88710937 -7 15 C-10.44419134 5.58997722 -10.44419134 5.58997722 -10 1 C-3.375 0 -3.375 0 0 0 Z " fill="#EED254" transform="translate(183,66)"/>
<path d="M0 0 C2 3 2 3 1.6875 5.5 C1.17901328 7.34904262 0.60642538 9.18072387 0 11 C-0.66 11 -1.32 11 -2 11 C-2 11.66 -2 12.32 -2 13 C-5.27800968 14.03023161 -6.61403548 14.17153978 -9.8125 12.75 C-10.534375 12.1725 -11.25625 11.595 -12 11 C-12 10.01 -12 9.02 -12 8 C-10.7625 7.319375 -10.7625 7.319375 -9.5 6.625 C-8.2625 5.820625 -8.2625 5.820625 -7 5 C-6.58219121 2.37305578 -6.58219121 2.37305578 -7 0 C-4.27584084 -1.36207958 -2.87220643 -0.86166193 0 0 Z " fill="#EFD651" transform="translate(159,25)"/>
<path d="M0 0 C0.99386719 0.02707031 1.98773438 0.05414063 3.01171875 0.08203125 C4.15060547 0.13423828 4.15060547 0.13423828 5.3125 0.1875 C4.9825 3.1575 4.6525 6.1275 4.3125 9.1875 C-1.2975 9.1875 -6.9075 9.1875 -12.6875 9.1875 C-11.6975 8.8575 -10.7075 8.5275 -9.6875 8.1875 C-9.584375 7.424375 -9.48125 6.66125 -9.375 5.875 C-7.97590624 0.40581532 -5.35269511 -0.18891865 0 0 Z " fill="#7AAFD6" transform="translate(195.6875,71.8125)"/>
<path d="M0 0 C0.99 0 1.98 0 3 0 C3 0.99 3 1.98 3 3 C3.66 3 4.32 3 5 3 C5.99 4.485 5.99 4.485 7 6 C8.32 5.67 9.64 5.34 11 5 C12.231394 8.69418201 11.64432764 11.2056261 11 15 C8.3125 15.3125 8.3125 15.3125 5 15 C2.0728873 12.53856432 0.11917214 10.17875822 -2 7 C-2 6.01 -2 5.02 -2 4 C-1.34 4 -0.68 4 0 4 C0 2.68 0 1.36 0 0 Z " fill="#F7D63F" transform="translate(134,81)"/>
<path d="M0 0 C0.99 0 1.98 0 3 0 C6.70514825 7.41029649 3.56188582 19.91543334 3 28.125 C2.90334382 29.57289654 2.80698746 31.02081312 2.7109375 32.46875 C2.47741032 35.97940426 2.23984121 39.48977077 2 43 C1.67 43 1.34 43 1 43 C0.00449294 38.04657734 -0.13097403 33.34489309 -0.09765625 28.3203125 C-0.0962413 27.50754852 -0.09482635 26.69478455 -0.09336853 25.85739136 C-0.08780335 23.27988899 -0.0752574 20.7024758 -0.0625 18.125 C-0.0574805 16.36979293 -0.05291838 14.61458448 -0.04882812 12.859375 C-0.03784534 8.57288268 -0.02060492 4.28645643 0 0 Z " fill="#362E42" transform="translate(178,87)"/>
<path d="M0 0 C1.32 0.33 2.64 0.66 4 1 C4 5.62 4 10.24 4 15 C1.03 15 -1.94 15 -5 15 C-4.67 12.69 -4.34 10.38 -4 8 C-3.34 8 -2.68 8 -2 8 C-1.855625 6.865625 -1.71125 5.73125 -1.5625 4.5625 C-1 1 -1 1 0 0 Z " fill="#F7D837" transform="translate(84,88)"/>
<path d="M0 0 C0.33 0.99 0.66 1.98 1 3 C1.66 3.33 2.32 3.66 3 4 C2.93999894 5.6260287 2.8512115 7.25101549 2.75 8.875 C2.68039063 10.23238281 2.68039063 10.23238281 2.609375 11.6171875 C2 14 2 14 -0.046875 15.3203125 C-0.69140625 15.54460938 -1.3359375 15.76890625 -2 16 C-2 14.68 -2 13.36 -2 12 C-2.804375 12.020625 -3.60875 12.04125 -4.4375 12.0625 C-7 12 -7 12 -8 11 C-8.04080783 9.00041636 -8.04254356 6.99954746 -8 5 C-4.535 4.505 -4.535 4.505 -1 4 C-0.67 2.68 -0.34 1.36 0 0 Z " fill="#ECD553" transform="translate(133,45)"/>
<path d="M0 0 C0.66 0 1.32 0 2 0 C2.72054048 5.66138945 3.38273804 11.32644329 4 17 C2.125 17.625 2.125 17.625 0 18 C-0.66 17.34 -1.32 16.68 -2 16 C-2.99 15.67 -3.98 15.34 -5 15 C-4.67 14.01 -4.34 13.02 -4 12 C-3.34 11.67 -2.68 11.34 -2 11 C-2.99 10.34 -3.98 9.68 -5 9 C-5.1875 6.375 -5.1875 6.375 -5 4 C-4.01 5.32 -3.02 6.64 -2 8 C-2 6.35 -2 4.7 -2 3 C-1.34 3 -0.68 3 0 3 C0 2.01 0 1.02 0 0 Z " fill="#F5DC8C" transform="translate(164,42)"/>
<path d="M0 0 C2.125 0.375 2.125 0.375 4 1 C4 1.66 4 2.32 4 3 C2.68 3.33 1.36 3.66 0 4 C0.33 4.99 0.66 5.98 1 7 C1.66 7 2.32 7 3 7 C3.433125 6.360625 3.86625 5.72125 4.3125 5.0625 C6 3 6 3 8.5 2.125 C11 2 11 2 14 4 C12.35 4.33 10.7 4.66 9 5 C8.938125 5.598125 8.87625 6.19625 8.8125 6.8125 C8 9 8 9 5.6875 10.8125 C3 12 3 12 0.75 11.8125 C-1 11 -1 11 -2 9 C-2.1875 5.5 -2.1875 5.5 -2 2 C-1.34 1.34 -0.68 0.68 0 0 Z " fill="#9CBDC1" transform="translate(98,42)"/>
<path d="M0 0 C3 3.625 3 3.625 3 7 C2.34 6.67 1.68 6.34 1 6 C0.67 6 0.34 6 0 6 C0 7.98 0 9.96 0 12 C0.66 12 1.32 12 2 12 C2.33 13.65 2.66 15.3 3 17 C0.03 17 -2.94 17 -6 17 C-4.44191344 4.14578588 -4.44191344 4.14578588 0 0 Z " fill="#F7D640" transform="translate(117,78)"/>
<path d="M0 0 C0.33 0.66 0.66 1.32 1 2 C-6.53404602 4.60838688 -12.99819339 6.54249536 -21 6 C-21 4.68 -21 3.36 -21 2 C-20.34 1.67 -19.68 1.34 -19 1 C-19 1.66 -19 2.32 -19 3 C-18.34 3 -17.68 3 -17 3 C-16.67 2.34 -16.34 1.68 -16 1 C-13.92578125 0.5859375 -13.92578125 0.5859375 -11.3125 0.375 C-10.41402344 0.30152344 -9.51554687 0.22804688 -8.58984375 0.15234375 C-5.72049257 -0.01644161 -2.87353366 -0.07561931 0 0 Z " fill="#E3E396" transform="translate(85,80)"/>
<path d="M0 0 C0 1.98 0 3.96 0 6 C-3.46222615 7.06723961 -6.64039266 7.10173486 -10.25 7.0625 C-11.32765625 7.05347656 -12.4053125 7.04445312 -13.515625 7.03515625 C-14.33546875 7.02355469 -15.1553125 7.01195312 -16 7 C-14.70889977 4.07994153 -14.12565442 3.08376961 -11.375 1.25 C-7.25131983 -0.27728895 -4.36676486 -0.22586715 0 0 Z " fill="#C9A672" transform="translate(202,137)"/>
<path d="M0 0 C0.99 0.66 1.98 1.32 3 2 C2.67 2.99 2.34 3.98 2 5 C1.01 5 0.02 5 -1 5 C-1 5.66 -1 6.32 -1 7 C-3.89234315 7.82638376 -5.88742431 8 -9 8 C-9.33 5.69 -9.66 3.38 -10 1 C-6.87293041 -0.5635348 -3.42017557 -0.39958487 0 0 Z " fill="#CACECB" transform="translate(172,25)"/>
<path d="M0 0 C0.33 0.66 0.66 1.32 1 2 C2.89533342 2.46523063 2.89533342 2.46523063 5.0625 2.625 C6.361875 2.74875 7.66125 2.8725 9 3 C9.33 3.99 9.66 4.98 10 6 C12.31 6.33 14.62 6.66 17 7 C17 8.32 17 9.64 17 11 C18.65 10.67 20.3 10.34 22 10 C21.01 11.485 21.01 11.485 20 13 C16.375 13.1875 16.375 13.1875 13 13 C12.67 11.68 12.34 10.36 12 9 C9.36 9.33 6.72 9.66 4 10 C4 9.34 4 8.68 4 8 C4.99 8 5.98 8 7 8 C6.67 7.01 6.34 6.02 6 5 C2.99152582 3.77479736 2.99152582 3.77479736 0 3 C0 2.01 0 1.02 0 0 Z " fill="#83BCDC" transform="translate(171,57)"/>
<path d="M0 0 C2.64 0 5.28 0 8 0 C8 1.98 8 3.96 8 6 C3.05 6 -1.9 6 -7 6 C-6.01 4.68 -5.02 3.36 -4 2 C-2.68 2 -1.36 2 0 2 C0 1.34 0 0.68 0 0 Z " fill="#C19C5F" transform="translate(176,137)"/>
<path d="M0 0 C0.99 0 1.98 0 3 0 C3.33 0.99 3.66 1.98 4 3 C4.66 2.67 5.32 2.34 6 2 C6.99 2.66 7.98 3.32 9 4 C8.01 5.485 8.01 5.485 7 7 C6.34 7 5.68 7 5 7 C4.34 9.31 3.68 11.62 3 14 C1.68 14 0.36 14 -1 14 C-1.02694851 12.04174127 -1.04637218 10.08337774 -1.0625 8.125 C-1.07410156 7.03445312 -1.08570313 5.94390625 -1.09765625 4.8203125 C-1 2 -1 2 0 0 Z " fill="#EBD897" transform="translate(169,43)"/>
<path d="M0 0 C2.53412471 1.26706235 2.97838008 2.40665712 4 5 C3.67 5.66 3.34 6.32 3 7 C2.34 6.67 1.68 6.34 1 6 C1.33 6.99 1.66 7.98 2 9 C1.34 9 0.68 9 0 9 C0 9.66 0 10.32 0 11 C-0.66 11 -1.32 11 -2 11 C-3.00217064 14.58327753 -3.00217064 14.58327753 -2 18 C-3.65 17.67 -5.3 17.34 -7 17 C-6.4987617 14.39356086 -5.74168947 12.50490483 -4.5 10.125 C-3.00112621 7.00234628 -2.55137235 4.3870016 -2 1 C-1.34 0.67 -0.68 0.34 0 0 Z " fill="#21120E" transform="translate(121,59)"/>
<path d="M0 0 C0.99 0 1.98 0 3 0 C3 1.98 3 3.96 3 6 C2.34 6 1.68 6 1 6 C2.98 6.66 4.96 7.32 7 8 C6.67 9.32 6.34 10.64 6 12 C0.375 12.25 0.375 12.25 -3 10 C-2.25 3.375 -2.25 3.375 0 0 Z " fill="#F1F2BC" transform="translate(85,43)"/>
<path d="M0 0 C0.33 2.64 0.66 5.28 1 8 C-3.455 8.495 -3.455 8.495 -8 9 C-8 6.69 -8 4.38 -8 2 C-2.25 0 -2.25 0 0 0 Z " fill="#70BDF0" transform="translate(204,55)"/>
<path d="M0 0 C0.87454834 0.00523682 1.74909668 0.01047363 2.65014648 0.01586914 C3.59438477 0.0190918 4.53862305 0.02231445 5.51147461 0.02563477 C6.50469727 0.03401367 7.49791992 0.04239258 8.52124023 0.05102539 C9.51833008 0.05553711 10.51541992 0.06004883 11.54272461 0.06469727 C14.01478872 0.07652532 16.48673541 0.0930069 18.95874023 0.11352539 C18.95874023 0.77352539 18.95874023 1.43352539 18.95874023 2.11352539 C18.29874023 2.11352539 17.63874023 2.11352539 16.95874023 2.11352539 C16.95874023 2.77352539 16.95874023 3.43352539 16.95874023 4.11352539 C12.08374023 3.23852539 12.08374023 3.23852539 10.95874023 2.11352539 C9.26732368 2.20315601 7.57914422 2.35930215 5.89624023 2.55102539 C4.97713867 2.65286133 4.05803711 2.75469727 3.11108398 2.85961914 C2.04567383 2.98530273 2.04567383 2.98530273 0.95874023 3.11352539 C0.85333098 5.3243439 0.85333098 5.3243439 1.95874023 8.11352539 C1.29874023 8.11352539 0.63874023 8.11352539 -0.04125977 8.11352539 C-0.04125977 7.45352539 -0.04125977 6.79352539 -0.04125977 6.11352539 C-1.03125977 6.11352539 -2.02125977 6.11352539 -3.04125977 6.11352539 C-3.08398077 4.44740634 -3.08189809 2.77969654 -3.04125977 1.11352539 C-2.04125977 0.11352539 -2.04125977 0.11352539 0 0 Z " fill="#3A4359" transform="translate(181.041259765625,80.886474609375)"/>
<path d="M0 0 C0.33 0 0.66 0 1 0 C1.144375 1.093125 1.28875 2.18625 1.4375 3.3125 C1.88288104 6.93122987 1.88288104 6.93122987 3 10 C2.34 10.66 1.68 11.32 1 12 C0.55048751 14.72927795 0.55048751 14.72927795 0.40234375 17.92578125 C0.32306641 19.11494141 0.24378906 20.30410156 0.16210938 21.52929688 C0.08798828 22.77775391 0.01386719 24.02621094 -0.0625 25.3125 C-0.2172718 27.76710397 -0.37472238 30.22154085 -0.53515625 32.67578125 C-0.63389038 34.3141394 -0.63389038 34.3141394 -0.73461914 35.9855957 C-0.97591875 38.72646624 -1.39980809 41.31764932 -2 44 C-2.33 44 -2.66 44 -3 44 C-2.73752323 38.85858813 -2.47086671 33.71741585 -2.20043945 28.57641602 C-2.10913798 26.82973004 -2.01895223 25.08298535 -1.92993164 23.33618164 C-1.80132023 20.81640388 -1.66861545 18.29686885 -1.53515625 15.77734375 C-1.49656998 15.00414291 -1.4579837 14.23094208 -1.41822815 13.43431091 C-1.17355111 8.90246801 -0.70872081 4.48337306 0 0 Z " fill="#72687E" transform="translate(182,92)"/>
<path d="M0 0 C2.31 0 4.62 0 7 0 C7 2.31 7 4.62 7 7 C4.03 7 1.06 7 -2 7 C-1.125 2.25 -1.125 2.25 0 0 Z " fill="#72BCF0" transform="translate(192,73)"/>
<path d="M0 0 C0 1.65 0 3.3 0 5 C-0.66 5 -1.32 5 -2 5 C-2.33 5.99 -2.66 6.98 -3 8 C-3.99 8.33 -4.98 8.66 -6 9 C-6 8.34 -6 7.68 -6 7 C-6.66 6.67 -7.32 6.34 -8 6 C-9.43718366 4.56281634 -10.09561927 2.80876145 -11 1 C-7.32589215 -0.17571451 -3.83070817 -0.07366746 0 0 Z " fill="#301F1D" transform="translate(131,57)"/>
<path d="M0 0 C4.29 0 8.58 0 13 0 C13.33 0.99 13.66 1.98 14 3 C14.66 3.33 15.32 3.66 16 4 C16.40729228 6.32156597 16.74438677 8.6568787 17 11 C16.34 10.67 15.68 10.34 15 10 C15 9.01 15 8.02 15 7 C14.34 7 13.68 7 13 7 C13 5.68 13 4.36 13 3 C8.71 3 4.42 3 0 3 C0 2.01 0 1.02 0 0 Z " fill="#5F6C69" transform="translate(121,93)"/>
<path d="M0 0 C2 3 2 3 1.625 5.6875 C1.41875 6.450625 1.2125 7.21375 1 8 C-1.31 7.34 -3.62 6.68 -6 6 C-6.33 4.02 -6.66 2.04 -7 0 C-4.27584084 -1.36207958 -2.87220643 -0.86166193 0 0 Z " fill="#ABC9A6" transform="translate(159,25)"/>
<path d="M0 0 C8.57142857 -0.14285714 8.57142857 -0.14285714 12 1 C11.67 3.31 11.34 5.62 11 8 C10.34 8 9.68 8 9 8 C8.34 6.68 7.68 5.36 7 4 C4.36 4.66 1.72 5.32 -1 6 C-0.67 4.02 -0.34 2.04 0 0 Z " fill="#593B32" transform="translate(183,29)"/>
<path d="M0 0 C1.65 0.33 3.3 0.66 5 1 C5 2.98 5 4.96 5 7 C4.01 7.495 4.01 7.495 3 8 C2.34786708 10.02463255 2.34786708 10.02463255 2 12 C1.34 12 0.68 12 0 12 C0 10.68 0 9.36 0 8 C-1.32 7.34 -2.64 6.68 -4 6 C-3.34 4.68 -2.68 3.36 -2 2 C-1.34 2 -0.68 2 0 2 C0 1.34 0 0.68 0 0 Z " fill="#74BDF5" transform="translate(189,47)"/>
<path d="M0 0 C4.03520597 1.58962659 8.01811282 3.28232318 12 5 C11.67 5.66 11.34 6.32 11 7 C9.18757948 7.02687279 7.37504767 7.04633715 5.5625 7.0625 C4.55316406 7.07410156 3.54382813 7.08570313 2.50390625 7.09765625 C0 7 0 7 -1 6 C-1.125 3.5 -1.125 3.5 -1 1 C-0.67 0.67 -0.34 0.34 0 0 Z " fill="#260C0A" transform="translate(132,165)"/>
<path d="M0 0 C3.3 0 6.6 0 10 0 C10.33 0.66 10.66 1.32 11 2 C7.7 2.33 4.4 2.66 1 3 C1 3.66 1 4.32 1 5 C0.21625 5.226875 -0.5675 5.45375 -1.375 5.6875 C-4.16792 6.77413955 -4.16792 6.77413955 -5.3125 9.375 C-6.16890626 12.1926587 -6.16890626 12.1926587 -6 16 C-6.99 16 -7.98 16 -9 16 C-9.33 14.35 -9.66 12.7 -10 11 C-9.44570312 10.54109375 -8.89140625 10.0821875 -8.3203125 9.609375 C-7.59585938 8.99578125 -6.87140625 8.3821875 -6.125 7.75 C-5.04605469 6.84507813 -5.04605469 6.84507813 -3.9453125 5.921875 C-1.67359166 3.8838024 -1.67359166 3.8838024 0 0 Z " fill="#E1D16B" transform="translate(204,22)"/>
<path d="M0 0 C1.65 0 3.3 0 5 0 C5 2.64 5 5.28 5 8 C3.02 8.99 3.02 8.99 1 10 C-0.625 8.375 -0.625 8.375 -2 6 C-1.1875 2.75 -1.1875 2.75 0 0 Z " fill="#CF886F" transform="translate(148,72)"/>
<path d="M0 0 C0.33 0.66 0.66 1.32 1 2 C0.01 2.495 0.01 2.495 -1 3 C-1 5.64 -1 8.28 -1 11 C-0.34 11.33 0.32 11.66 1 12 C1.33 10.35 1.66 8.7 2 7 C2.99 7 3.98 7 5 7 C5.33 8.98 5.66 10.96 6 13 C3.29120665 14.35439668 0.99066732 14.06501451 -2 14 C-4.60018816 10.09971775 -4.15085514 6.52565431 -4 2 C-2.68 1.34 -1.36 0.68 0 0 Z " fill="#7FB9DB" transform="translate(120,44)"/>
<path d="M0 0 C1.0209375 0.433125 1.0209375 0.433125 2.0625 0.875 C5.32893093 2.12597355 8.62846123 3.07447955 12 4 C12 4.99 12 5.98 12 7 C8.33333333 7 4.66666667 7 1 7 C-0.75 5 -0.75 5 -2 3 C-1.34 2.01 -0.68 1.02 0 0 Z " fill="#411B15" transform="translate(113,165)"/>
<path d="M0 0 C0 0.66 0 1.32 0 2 C-0.66 2 -1.32 2 -2 2 C-2 3.98 -2 5.96 -2 8 C0.31 8.33 2.62 8.66 5 9 C1.17482487 11.39073445 -2.59665524 11.55966552 -7 12 C-6.34 11.67 -5.68 11.34 -5 11 C-5.33 10.401875 -5.66 9.80375 -6 9.1875 C-7 7 -7 7 -7 4 C-6.34 4 -5.68 4 -5 4 C-5 3.34 -5 2.68 -5 2 C-2 0 -2 0 0 0 Z M-4 3 C-3 5 -3 5 -3 5 Z " fill="#F6E25C" transform="translate(82,94)"/>
<path d="M0 0 C3.34676814 1.03865218 4.02532602 2.04612953 5.75 5.1875 C7.16343391 8.82422724 7.23857902 12.10320937 7 16 C4.69 16 2.38 16 0 16 C0 15.67 0 15.34 0 15 C1.65 15 3.3 15 5 15 C4.67 12.36 4.34 9.72 4 7 C3.01 7.33 2.02 7.66 1 8 C0.40267181 5.23735711 0 2.83967231 0 0 Z " fill="#81B7DB" transform="translate(200,48)"/>
<path d="M0 0 C3 2 3 2 3.8125 4.5 C3.874375 5.325 3.93625 6.15 4 7 C2 9 2 9 -1.625 9.125 C-2.73875 9.08375 -3.8525 9.0425 -5 9 C-5.33 8.34 -5.66 7.68 -6 7 C-5.34 6.67 -4.68 6.34 -4 6 C-4.66 5.34 -5.32 4.68 -6 4 C-3.99967627 2.99983813 -2.16874252 2.50603992 0 2 C0 1.34 0 0.68 0 0 Z " fill="#29110C" transform="translate(126,69)"/>
<path d="M0 0 C0.33 0.66 0.66 1.32 1 2 C2.65 2 4.3 2 6 2 C6 2.66 6 3.32 6 4 C3.69 4 1.38 4 -1 4 C-1.33 4.66 -1.66 5.32 -2 6 C-2.66 5.67 -3.32 5.34 -4 5 C-4 5.66 -4 6.32 -4 7 C-3.01 7.33 -2.02 7.66 -1 8 C-3.97 7.67 -6.94 7.34 -10 7 C-6.87378374 3.60582235 -4.43458973 1.3937282 0 0 Z " fill="#EABC93" transform="translate(158,56)"/>
<path d="M0 0 C0.99 0 1.98 0 3 0 C4.10844919 3.32534757 3.84454356 5.62182575 3 9 C2.34 9 1.68 9 1 9 C0.67 9.99 0.34 10.98 0 12 C-0.99 9.03 -1.98 6.06 -3 3 C-2.01 2.01 -1.02 1.02 0 0 Z " fill="#E4AFA8" transform="translate(185,33)"/>
<path d="M0 0 C0.16682272 4.92127034 0.24828052 8.50343896 -2 13 C-3.73662334 9.77484237 -4.8905928 6.48670834 -6 3 C-3.375 0 -3.375 0 0 0 Z " fill="#B77558" transform="translate(132,62)"/>
<path d="M0 0 C0.0825 0.7425 0.165 1.485 0.25 2.25 C1.1396946 5.51221354 2.48503749 6.80954878 5 9 C4.01 9 3.02 9 2 9 C1.67 9.99 1.34 10.98 1 12 C0.34 10.68 -0.32 9.36 -1 8 C-1.33 9.65 -1.66 11.3 -2 13 C-2.66 13 -3.32 13 -4 13 C-3.67 10.03 -3.34 7.06 -3 4 C-3.66 3.67 -4.32 3.34 -5 3 C-5 2.34 -5 1.68 -5 1 C-2 0 -2 0 0 0 Z " fill="#EED570" transform="translate(158,45)"/>
<path d="M0 0 C1.299375 -0.03867187 1.299375 -0.03867187 2.625 -0.078125 C5.42903194 0.30927415 6.26286782 1.07858478 8 3.25 C7.67 3.91 7.34 4.57 7 5.25 C3.65626525 4.69271087 0.96687001 3.89826111 -2 2.25 C-2.33 2.91 -2.66 3.57 -3 4.25 C-4.65 3.92 -6.3 3.59 -8 3.25 C-8 2.59 -8 1.93 -8 1.25 C-5.09458095 0.28152698 -3.03362546 0.05417188 0 0 Z " fill="#E2A395" transform="translate(162,59.75)"/>
<path d="M0 0 C0.763125 0.20625 1.52625 0.4125 2.3125 0.625 C2.6425 2.275 2.9725 3.925 3.3125 5.625 C1.3325 5.955 -0.6475 6.285 -2.6875 6.625 C-3.0175 5.635 -3.3475 4.645 -3.6875 3.625 C-4.3475 2.965 -5.0075 2.305 -5.6875 1.625 C-2.6875 -0.375 -2.6875 -0.375 0 0 Z " fill="#6CBBEA" transform="translate(127.6875,43.375)"/>
<path d="M0 0 C1.32 0.33 2.64 0.66 4 1 C3.54625 1.825 3.0925 2.65 2.625 3.5 C1.34158465 6.26427923 0.59356007 8.39959329 -0.0625 11.3125 C-0.371875 12.529375 -0.68125 13.74625 -1 15 C-1.99 15.495 -1.99 15.495 -3 16 C-2.52013969 10.43109483 -1.70084819 5.32932432 0 0 Z " fill="#82BDDC" transform="translate(118,96)"/>
<path d="M0 0 C0.33 0 0.66 0 1 0 C1.19622241 4.21878192 0.80230168 7.17010894 -1 11 C1.97 11 4.94 11 8 11 C8.33 10.34 8.66 9.68 9 9 C9 9.99 9 10.98 9 12 C8.01 12 7.02 12 6 12 C6 12.66 6 13.32 6 14 C-0.875 13.125 -0.875 13.125 -2 12 C-1.9140625 10.0390625 -1.9140625 10.0390625 -1.625 7.625 C-1.48964844 6.43777344 -1.48964844 6.43777344 -1.3515625 5.2265625 C-1 3 -1 3 0 0 Z " fill="#E8D560" transform="translate(112,84)"/>
<path d="M0 0 C0.33 0.66 0.66 1.32 1 2 C1.66 2 2.32 2 3 2 C2.67 8.6 2.34 15.2 2 22 C1.67 22 1.34 22 1 22 C0.02700844 17.14270355 -0.12038805 12.5499375 -0.0625 7.625 C-0.05798828 6.88894531 -0.05347656 6.15289062 -0.04882812 5.39453125 C-0.03715142 3.59631842 -0.01922011 1.79814803 0 0 Z " fill="#383044" transform="translate(178,108)"/>
<path d="M0 0 C-0.99 1.485 -0.99 1.485 -2 3 C-2.66 3 -3.32 3 -4 3 C-4 3.66 -4 4.32 -4 5 C-6.64 5 -9.28 5 -12 5 C-9.14301973 0.7145296 -5.15801183 -2.18223577 0 0 Z " fill="#E6A69E" transform="translate(204,66)"/>
<path d="M0 0 C0.99 0.66 1.98 1.32 3 2 C2.67 2.99 2.34 3.98 2 5 C1.01 5 0.02 5 -1 5 C-1.33 5.66 -1.66 6.32 -2 7 C-1.67 5.68 -1.34 4.36 -1 3 C-1.99 3 -2.98 3 -4 3 C-4.99 3 -5.98 3 -7 3 C-7.33 3.66 -7.66 4.32 -8 5 C-8.66 4.67 -9.32 4.34 -10 4 C-10 3.01 -10 2.02 -10 1 C-6.87293041 -0.5635348 -3.42017557 -0.39958487 0 0 Z " fill="#BFC2C0" transform="translate(172,25)"/>
<path d="M0 0 C0.99 0.33 1.98 0.66 3 1 C2.67 3.97 2.34 6.94 2 10 C-2.455 11.485 -2.455 11.485 -7 13 C-7.33 12.34 -7.66 11.68 -8 11 C-5.36 10.01 -2.72 9.02 0 8 C0 7.34 0 6.68 0 6 C-0.66 5.67 -1.32 5.34 -2 5 C-2 4.01 -2 3.02 -2 2 C-1.34 2 -0.68 2 0 2 C0 1.34 0 0.68 0 0 Z " fill="#CDB79B" transform="translate(184,70)"/>
<path d="M0 0 C1.45947705 0.06006078 2.91779272 0.1488689 4.375 0.25 C5.59316406 0.31960937 5.59316406 0.31960937 6.8359375 0.390625 C9 1 9 1 10.2890625 3.046875 C10.64097656 4.01367188 10.64097656 4.01367188 11 5 C8.3125 5.3125 8.3125 5.3125 5 5 C2.125 2.5 2.125 2.5 0 0 Z " fill="#A67973" transform="translate(133,164)"/>
<path d="M0 0 C0.33 0.66 0.66 1.32 1 2 C2.89533342 2.46523063 2.89533342 2.46523063 5.0625 2.625 C6.361875 2.74875 7.66125 2.8725 9 3 C9.38133299 4.9914056 9.71325582 6.99279077 10 9 C9 10 9 10 6.4375 10.0625 C5.633125 10.041875 4.82875 10.02125 4 10 C4 9.34 4 8.68 4 8 C4.99 8 5.98 8 7 8 C6.67 7.01 6.34 6.02 6 5 C2.99152582 3.77479736 2.99152582 3.77479736 0 3 C0 2.01 0 1.02 0 0 Z " fill="#809498" transform="translate(171,57)"/>
<path d="M0 0 C0.99 0 1.98 0 3 0 C4.125 6.75 4.125 6.75 3 9 C2.63858045 11.32914823 2.30300475 13.66253478 2 16 C1.67 16 1.34 16 1 16 C0.83191581 13.89594609 0.66558052 11.79175242 0.5 9.6875 C0.4071875 8.51574219 0.314375 7.34398438 0.21875 6.13671875 C0.07635011 4.094806 0 2.0468721 0 0 Z " fill="#2C2239" transform="translate(178,87)"/>
<path d="M0 0 C0.33 0.99 0.66 1.98 1 3 C1.66 3.33 2.32 3.66 3 4 C3 4.99 3 5.98 3 7 C0.36 7 -2.28 7 -5 7 C-5.33 8.32 -5.66 9.64 -6 11 C-6.66 11 -7.32 11 -8 11 C-8 9.02 -8 7.04 -8 5 C-4.535 4.505 -4.535 4.505 -1 4 C-0.67 2.68 -0.34 1.36 0 0 Z " fill="#D6E5B9" transform="translate(133,45)"/>
<path d="M0 0 C3 1 3 1 5 3 C5.99 3 6.98 3 8 3 C8 3.99 8 4.98 8 6 C5.36 6 2.72 6 0 6 C-1.125 2.25 -1.125 2.25 0 0 Z " fill="#70C0F6" transform="translate(181,58)"/>
<path d="M0 0 C1.65 0 3.3 0 5 0 C5 1.98 5 3.96 5 6 C2.36 5.67 -0.28 5.34 -3 5 C-2.67 4.34 -2.34 3.68 -2 3 C-1.01 3 -0.02 3 1 3 C0.67 2.01 0.34 1.02 0 0 Z " fill="#D2AB68" transform="translate(197,137)"/>
<path d="M0 0 C0.928125 0.33 1.85625 0.66 2.8125 1 C5.92029291 2.14967004 5.92029291 2.14967004 9 2 C9 2.66 9 3.32 9 4 C9.99 4.33 10.98 4.66 12 5 C8.37 5 4.74 5 1 5 C0.67 3.35 0.34 1.7 0 0 Z " fill="#F9D554" transform="translate(120,88)"/>
<path d="M0 0 C2.31 0 4.62 0 7 0 C6.6875 2.375 6.6875 2.375 6 5 C3 7 3 7 0 7 C0 5 0 5 1.5 3.375 C1.995 2.92125 2.49 2.4675 3 2 C2.01 1.34 1.02 0.68 0 0 Z " fill="#D3ACAD" transform="translate(200,64)"/>
<path d="M0 0 C0.8125 3.125 0.8125 3.125 1 6 C-0.32 6.33 -1.64 6.66 -3 7 C-2.34 6.67 -1.68 6.34 -1 6 C-1.33 4.35 -1.66 2.7 -2 1 C-4.97 1 -7.94 1 -11 1 C-7.4429184 -2.5570816 -4.29084671 -2.66728309 0 0 Z " fill="#8EBED3" transform="translate(132,43)"/>
<path d="M0 0 C3 1 3 1 4.25 3.4375 C6.63658804 6.93214677 8.96575483 7.16270383 13 8 C10 10 10 10 8.0625 9.875 C4.30601246 8.28133862 2.41740802 5.91829765 0.75 2.25 C0.5025 1.5075 0.255 0.765 0 0 Z " fill="#E3CF5E" transform="translate(131,88)"/>
<path d="M0 0 C0.66 0 1.32 0 2 0 C3.5078125 1.53125 3.5078125 1.53125 5.125 3.5 C5.66382813 4.1496875 6.20265625 4.799375 6.7578125 5.46875 C7.16773438 5.9740625 7.57765625 6.479375 8 7 C9.65 6.67 11.3 6.34 13 6 C12.01 7.485 12.01 7.485 11 9 C7.6875 8.8125 7.6875 8.8125 4 8 C1.92478531 5.37139473 1.05656463 3.16969389 0 0 Z " fill="#EDD769" transform="translate(133,76)"/>
<path d="M0 0 C1.32 0.66 2.64 1.32 4 2 C3.01 3.485 3.01 3.485 2 5 C1.34 5 0.68 5 0 5 C-0.66 7.31 -1.32 9.62 -2 12 C-2.99 12 -3.98 12 -5 12 C-4.54625 11.13375 -4.0925 10.2675 -3.625 9.375 C-2.13733341 6.28523093 -1.0123569 3.27069152 0 0 Z " fill="#C8D3AF" transform="translate(174,45)"/>
<path d="M0 0 C0.33 0 0.66 0 1 0 C1.33 3.63 1.66 7.26 2 11 C6.455 10.505 6.455 10.505 11 10 C10.67 10.99 10.34 11.98 10 13 C7 13 4 13 1 13 C0.1276588 10.00519083 -0.10829766 7.36424089 -0.0625 4.25 C-0.05347656 3.45078125 -0.04445312 2.6515625 -0.03515625 1.828125 C-0.02355469 1.22484375 -0.01195312 0.6215625 0 0 Z " fill="#7DADD2" transform="translate(129,152)"/>
<path d="M0 0 C1.65 1.32 3.3 2.64 5 4 C2.02588876 5.23921302 -0.85262818 6.30058404 -4 7 C-4 5.68 -4 4.36 -4 3 C-3.01 2.67 -2.02 2.34 -1 2 C-0.67 1.34 -0.34 0.68 0 0 Z " fill="#F6E058" transform="translate(69,102)"/>
<path d="M0 0 C1.98 0 3.96 0 6 0 C5.67 0.66 5.34 1.32 5 2 C4.34 2 3.68 2 3 2 C3.185625 2.804375 3.37125 3.60875 3.5625 4.4375 C3.706875 5.283125 3.85125 6.12875 4 7 C3 8 3 8 -0.0625 8.0625 C-1.031875 8.041875 -2.00125 8.02125 -3 8 C-2.319375 7.236875 -1.63875 6.47375 -0.9375 5.6875 C0.0215625 4.3571875 0.0215625 4.3571875 1 3 C0.67 2.01 0.34 1.02 0 0 Z " fill="#DBAFAC" transform="translate(189,38)"/>
<path d="M0 0 C1.5778125 0.5878125 1.5778125 0.5878125 3.1875 1.1875 C3.1875 2.5075 3.1875 3.8275 3.1875 5.1875 C2.5275 5.1875 1.8675 5.1875 1.1875 5.1875 C1.1875 4.1975 1.1875 3.2075 1.1875 2.1875 C-2.24480448 2.45143501 -2.24480448 2.45143501 -5.8125 3.1875 C-6.4725 4.1775 -7.1325 5.1675 -7.8125 6.1875 C-8.1425 4.8675 -8.4725 3.5475 -8.8125 2.1875 C-5.40642194 -0.49607665 -4.36051646 -0.92929039 0 0 Z " fill="#E6DE79" transform="translate(155.8125,30.8125)"/>
<path d="M0 0 C0.66 0 1.32 0 2 0 C2 0.66 2 1.32 2 2 C4.97 2.495 4.97 2.495 8 3 C8.33 3.99 8.66 4.98 9 6 C5.25 9 5.25 9 3 9 C3.66666667 7 4.33333333 5 5 3 C3.35 2.67 1.7 2.34 0 2 C0 1.34 0 0.68 0 0 Z " fill="#C7A99A" transform="translate(169,58)"/>
<path d="M0 0 C1.32 0.33 2.64 0.66 4 1 C4 5.62 4 10.24 4 15 C3.67 15 3.34 15 3 15 C3 10.71 3 6.42 3 2 C2.01 2.99 1.02 3.98 0 5 C-0.66 4.67 -1.32 4.34 -2 4 C-1.34 2.68 -0.68 1.36 0 0 Z " fill="#EDD662" transform="translate(84,88)"/>
<path d="M0 0 C0.99928333 2.698065 1.03624754 3.88010429 0.1875 6.6875 C-1 9 -1 9 -3 10 C-2.01 10.33 -1.02 10.66 0 11 C-1.32 11 -2.64 11 -4 11 C-3.125 4.25 -3.125 4.25 -2 2 C-1.34 2 -0.68 2 0 2 C0 1.34 0 0.68 0 0 Z " fill="#78BAD6" transform="translate(176,48)"/>
<path d="M0 0 C0.66 0 1.32 0 2 0 C2 3.96 2 7.92 2 12 C1.01 11.34 0.02 10.68 -1 10 C-0.67 6.7 -0.34 3.4 0 0 Z " fill="#3B3648" transform="translate(198,121)"/>
<path d="M0 0 C3 3.625 3 3.625 3 7 C0.69 7 -1.62 7 -4 7 C-4 6.01 -4 5.02 -4 4 C-3.01 3.67 -2.02 3.34 -1 3 C-0.67 2.01 -0.34 1.02 0 0 Z " fill="#F4D631" transform="translate(74,98)"/>
<path d="M0 0 C0.33 0.66 0.66 1.32 1 2 C1.66 2 2.32 2 3 2 C3.33 1.34 3.66 0.68 4 0 C4.33 1.32 4.66 2.64 5 4 C1.86650268 5.04449911 1.01031744 4.93423645 -2 4 C-1.34 2.68 -0.68 1.36 0 0 Z " fill="#E6E48B" transform="translate(65,81)"/>
<path d="M0 0 C2.475 0.495 2.475 0.495 5 1 C3.515 4.96 3.515 4.96 2 9 C1.34 8.67 0.68 8.34 0 8 C0 5.36 0 2.72 0 0 Z " fill="#6DB9ED" transform="translate(118,47)"/>
<path d="M0 0 C1.5625 1.8125 1.5625 1.8125 3 4 C2.67 4.99 2.34 5.98 2 7 C0.02 7.33 -1.96 7.66 -4 8 C-4 7.34 -4 6.68 -4 6 C-3.01 6 -2.02 6 -1 6 C-0.67 4.02 -0.34 2.04 0 0 Z " fill="#EEDA7B" transform="translate(212,28)"/>
<path d="M0 0 C4.12751449 0.60698743 7.3321148 2.03810791 11 4 C11 4.33 11 4.66 11 5 C8.3125 5.3125 8.3125 5.3125 5 5 C2.125 2.5 2.125 2.5 0 0 Z " fill="#A9736A" transform="translate(114,164)"/>
<path d="M0 0 C0.66 0 1.32 0 2 0 C1.979375 0.78375 1.95875 1.5675 1.9375 2.375 C1.81315937 4.98114961 1.81315937 4.98114961 3 7 C-0.14737182 6.30058404 -3.02588876 5.23921302 -6 4 C-6 3.67 -6 3.34 -6 3 C-5.195625 2.87625 -4.39125 2.7525 -3.5625 2.625 C-2.716875 2.41875 -1.87125 2.2125 -1 2 C-0.67 1.34 -0.34 0.68 0 0 Z " fill="#9BB4C1" transform="translate(120,160)"/>
<path d="M0 0 C2 0.3125 2 0.3125 4 1 C4.33 1.66 4.66 2.32 5 3 C5.99 3.66 6.98 4.32 8 5 C7.01 5.495 7.01 5.495 6 6 C5.01 5.67 4.02 5.34 3 5 C3 4.34 3 3.68 3 3 C1.35 3.66 -0.3 4.32 -2 5 C-1.125 1.125 -1.125 1.125 0 0 Z " fill="#F5E177" transform="translate(66,96)"/>
<path d="M0 0 C1.98 0 3.96 0 6 0 C6 2.31 6 4.62 6 7 C5.34 7 4.68 7 4 7 C4 5.68 4 4.36 4 3 C2.68 2.34 1.36 1.68 0 1 C0 0.67 0 0.34 0 0 Z " fill="#9BD6F9" transform="translate(185,52)"/>
<path d="M0 0 C0 0.33 0 0.66 0 1 C-6.435 1.495 -6.435 1.495 -13 2 C-8.23113679 -2.76886321 -6.11091178 -1.96010378 0 0 Z " fill="#8BB5D0" transform="translate(190,46)"/>
<path d="M0 0 C-0.33 3.3 -0.66 6.6 -1 10 C-1.66 10 -2.32 10 -3 10 C-3 7.03 -3 4.06 -3 1 C-1 0 -1 0 0 0 Z " fill="#62C7EA" transform="translate(142,134)"/>
<path d="M0 0 C2.62374802 5.24749603 3.09534716 8.08847633 3 14 C2.67 14 2.34 14 2 14 C1.814375 12.88625 1.814375 12.88625 1.625 11.75 C1.14567448 9.03672043 1.14567448 9.03672043 -0.125 7 C-1.28427778 4.35022223 -0.75850744 2.73062678 0 0 Z " fill="#332C3D" transform="translate(193,114)"/>
<path d="M0 0 C0.763125 0.0825 1.52625 0.165 2.3125 0.25 C1.3225 0.745 1.3225 0.745 0.3125 1.25 C0.6425 2.24 0.9725 3.23 1.3125 4.25 C-0.9975 4.25 -3.3075 4.25 -5.6875 4.25 C-3.34903846 0.31153846 -3.34903846 0.31153846 0 0 Z " fill="#CDB984" transform="translate(174.6875,138.75)"/>
<path d="M0 0 C0.66 0.66 1.32 1.32 2 2 C1.96712417 4.72869407 1.43602229 7.2966618 1 10 C0.34 10 -0.32 10 -1 10 C-2.46726798 6.18510326 -1.43336419 3.70988378 0 0 Z " fill="#2D2732" transform="translate(188,98)"/>
<path d="M0 0 C1.32 0.33 2.64 0.66 4 1 C3.67 3.31 3.34 5.62 3 8 C2.67 7.34 2.34 6.68 2 6 C1.34 6 0.68 6 0 6 C0 4.02 0 2.04 0 0 Z " fill="#ECD056" transform="translate(152,48)"/>
<path d="M0 0 C1.32 0.66 2.64 1.32 4 2 C3.67 2.99 3.34 3.98 3 5 C2.34 5 1.68 5 1 5 C0.67 5.66 0.34 6.32 0 7 C-1 6 -1 6 -1.125 3.5 C-1 1 -1 1 0 0 Z " fill="#2F201C" transform="translate(132,165)"/>
<path d="M0 0 C0.66 0 1.32 0 2 0 C2.33 2.31 2.66 4.62 3 7 C2.34 7 1.68 7 1 7 C-0.625 5 -0.625 5 -2 3 C-1.34 2.01 -0.68 1.02 0 0 Z " fill="#2C1715" transform="translate(113,165)"/>
<path d="M0 0 C0.33 0 0.66 0 1 0 C1.042721 1.66611905 1.04063832 3.33382885 1 5 C0 6 0 6 -1.84765625 6.09765625 C-3.8984375 6.06510417 -5.94921875 6.03255208 -8 6 C-8 5.34 -8 4.68 -8 4 C-4.86650268 2.95550089 -4.01031744 3.06576355 -1 4 C-0.67 2.68 -0.34 1.36 0 0 Z " fill="#80C2F0" transform="translate(139,157)"/>
<path d="M0 0 C2 2 2 2 2.1953125 4.1640625 C2.16050781 5.38222656 2.16050781 5.38222656 2.125 6.625 C2.10695312 7.44226563 2.08890625 8.25953125 2.0703125 9.1015625 C2.04710937 9.72804687 2.02390625 10.35453125 2 11 C1.34 11 0.68 11 0 11 C-1.125 3.375 -1.125 3.375 0 0 Z " fill="#352E3D" transform="translate(184,126)"/>
<path d="M0 0 C0.33 0 0.66 0 1 0 C1.144375 1.093125 1.28875 2.18625 1.4375 3.3125 C1.88288104 6.93122987 1.88288104 6.93122987 3 10 C2.01 10.66 1.02 11.32 0 12 C-1.16063604 7.74433453 -0.76173392 4.3164922 0 0 Z " fill="#5C5167" transform="translate(182,92)"/>
<path d="M0 0 C-0.3125 1.9375 -0.3125 1.9375 -1 4 C-1.99 4.33 -2.98 4.66 -4 5 C-4 3.68 -4 2.36 -4 1 C-5.65 1 -7.3 1 -9 1 C-9 0.67 -9 0.34 -9 0 C-3.375 -1.125 -3.375 -1.125 0 0 Z " fill="#B4A45F" transform="translate(135,56)"/>
<path d="M0 0 C0.99 0 1.98 0 3 0 C3 1.98 3 3.96 3 6 C1.35 5.67 -0.3 5.34 -2 5 C-1 2 -1 2 0 1 C0 0.67 0 0.34 0 0 Z " fill="#70B7C0" transform="translate(156,25)"/>
<path d="M0 0 C0 1.65 0 3.3 0 5 C-0.66 4.67 -1.32 4.34 -2 4 C-3.99960012 3.960008 -6.00047242 3.95653201 -8 4 C-8 3.34 -8 2.68 -8 2 C-1.125 0 -1.125 0 0 0 Z " fill="#C8C9AF" transform="translate(145,58)"/>
<path d="M0 0 C2.97 0.495 2.97 0.495 6 1 C5.67 2.32 5.34 3.64 5 5 C3.68 4.67 2.36 4.34 1 4 C0.67 2.68 0.34 1.36 0 0 Z " fill="#F1EEC0" transform="translate(86,50)"/>
<path d="M0 0 C1.65 0 3.3 0 5 0 C5 3 5 3 4 5 C2.68 4.34 1.36 3.68 0 3 C0 2.01 0 1.02 0 0 Z " fill="#F5D834" transform="translate(204,31)"/>
<path d="M0 0 C-0.33 1.32 -0.66 2.64 -1 4 C-1.66 3.34 -2.32 2.68 -3 2 C-3.99 2.33 -4.98 2.66 -6 3 C-6.99 2.34 -7.98 1.68 -9 1 C-3.375 -1.125 -3.375 -1.125 0 0 Z " fill="#F1DD51" transform="translate(214,24)"/>
<path d="M0 0 C1.98 0.495 1.98 0.495 4 1 C3.1875 2.9375 3.1875 2.9375 2 5 C1.01 5.33 0.02 5.66 -1 6 C-0.67 4.02 -0.34 2.04 0 0 Z " fill="#9BCAC4" transform="translate(118,96)"/>
<path d="M0 0 C0.66 0.66 1.32 1.32 2 2 C4.58354218 2.16687448 4.58354218 2.16687448 7 2 C7.33 2.66 7.66 3.32 8 4 C5.69 4.33 3.38 4.66 1 5 C0.67 3.35 0.34 1.7 0 0 Z " fill="#F3F1A4" transform="translate(70,81)"/>
<path d="M0 0 C2.7839183 1.39195915 2.97898997 3.15575779 4 6 C2.68 6 1.36 6 0 6 C0 4.02 0 2.04 0 0 Z " fill="#ECEB9D" transform="translate(84,48)"/>
<path d="M0 0 C1.32 0 2.64 0 4 0 C4.33 1.32 4.66 2.64 5 4 C4.34 4 3.68 4 3 4 C2.67 4.66 2.34 5.32 2 6 C1.34 4.02 0.68 2.04 0 0 Z " fill="#CF9A95" transform="translate(182,35)"/>
<path d="M0 0 C1.5 1.125 1.5 1.125 3 3 C3.1875 6.1875 3.1875 6.1875 3 9 C0.90250005 6.64031256 0.03094296 5.45383006 -0.1875 2.25 C-0.125625 1.5075 -0.06375 0.765 0 0 Z " fill="#76B0DB" transform="translate(136,103)"/>
<path d="M0 0 C-1.98 0.99 -1.98 0.99 -4 2 C-4 2.66 -4 3.32 -4 4 C-4.66 4 -5.32 4 -6 4 C-6 2.68 -6 1.36 -6 0 C-3.50907189 -1.24546405 -2.58919267 -0.7767578 0 0 Z " fill="#79C2F7" transform="translate(127,100)"/>
<path d="M0 0 C-0.33 1.32 -0.66 2.64 -1 4 C-2.32 4 -3.64 4 -5 4 C-5 3.01 -5 2.02 -5 1 C-2 0 -2 0 0 0 Z " fill="#BE7148" transform="translate(153,77)"/>
<path d="M0 0 C2.97 0 5.94 0 9 0 C8 2 8 2 5.625 2.8125 C4.325625 2.9053125 4.325625 2.9053125 3 3 C2.01 2.01 1.02 1.02 0 0 Z " fill="#DDBF47" transform="translate(119,78)"/>
<path d="M0 0 C0.99 0.33 1.98 0.66 3 1 C2.34 2.98 1.68 4.96 1 7 C0 5 -1 3 -2 1 C-1.34 0.67 -0.68 0.34 0 0 Z " fill="#8D5A3D" transform="translate(129,68)"/>
<path d="M0 0 C0 0.66 0 1.32 0 2 C0.66 2 1.32 2 2 2 C1.67 2.66 1.34 3.32 1 4 C0.34 3.67 -0.32 3.34 -1 3 C-1.33 3.66 -1.66 4.32 -2 5 C-2.66 4.67 -3.32 4.34 -4 4 C-4 3.01 -4 2.02 -4 1 C-2 0 -2 0 0 0 Z " fill="#96C8D1" transform="translate(156,24)"/>
<path d="M0 0 C1.32 0.33 2.64 0.66 4 1 C4 1.99 4 2.98 4 4 C2.68 4 1.36 4 0 4 C0 2.68 0 1.36 0 0 Z " fill="#E4D66F" transform="translate(108,32)"/>
<path d="M0 0 C0.66 0 1.32 0 2 0 C1.67 0.99 1.34 1.98 1 3 C0.67 2.01 0.34 1.02 0 0 Z " fill="#EBD899" transform="translate(72,96)"/>
<path d="M0 0 C3 1 3 1 3 1 Z " fill="#F9E3A9" transform="translate(66,109)"/>
<path d="M0 0 C2 1 2 1 2 1 Z " fill="#FFFFDF" transform="translate(74,107)"/>
<path d="" fill="#EBEB98" transform="translate(0,0)"/>
<path d="M0 0 C2 1 2 1 2 1 Z " fill="#BEBEBE" transform="translate(172,24)"/>
<path d="" fill="#241224" transform="translate(0,0)"/>
<path d="" fill="#FFFFFF" transform="translate(0,0)"/>
<path d="" fill="#C3B4B4" transform="translate(0,0)"/>
<path d="" fill="#FFFFFF" transform="translate(0,0)"/>
<path d="" fill="#FFAAAA" transform="translate(0,0)"/>
</svg>
