<?xml version="1.0" standalone="no"?>
<!DOCTYPE svg PUBLIC "-//W3C//DTD SVG 20010904//EN"
 "http://www.w3.org/TR/2001/REC-SVG-20010904/DTD/svg10.dtd">
<svg version="1.0" xmlns="http://www.w3.org/2000/svg"
 width="2000.000000pt" height="1250.000000pt" viewBox="0 0 2000.000000 1250.000000"
 preserveAspectRatio="xMidYMid meet">

<g transform="translate(0.000000,1250.000000) scale(0.100000,-0.100000)"
fill="#000000" stroke="none">
<path d="M6285 11950 c-168 -23 -285 -75 -401 -180 -30 -28 -52 -39 -90 -44
-244 -32 -429 -410 -523 -1071 -88 -615 -92 -1178 -9 -1455 42 -141 134 -291
277 -450 33 -38 61 -71 61 -73 0 -3 -19 -8 -42 -12 -24 -4 -70 -17 -103 -30
-33 -13 -70 -26 -81 -29 -34 -10 -95 -75 -117 -125 -29 -64 -34 -208 -12 -326
56 -303 230 -658 450 -922 58 -69 64 -81 80 -156 9 -45 19 -133 22 -194 l6
-113 716 2 c695 3 703 3 253 8 l-464 5 -19 24 c-34 42 -20 92 32 110 18 6 69
11 114 11 64 0 84 3 89 15 4 11 21 15 66 15 47 0 60 -3 60 -15 0 -8 7 -15 15
-15 8 0 15 7 15 15 0 12 13 15 60 15 47 0 60 -3 60 -15 0 -8 4 -15 9 -15 5 0
11 7 15 15 4 11 21 15 66 15 47 0 60 -3 60 -15 0 -8 7 -15 15 -15 8 0 15 7 15
15 0 12 13 15 60 15 47 0 60 -3 60 -15 0 -8 7 -15 15 -15 8 0 14 6 12 13 -1 8
17 13 61 15 51 2 62 0 62 -13 0 -8 7 -15 15 -15 8 0 15 7 15 15 0 12 13 15 60
15 47 0 60 -3 60 -15 0 -8 7 -15 15 -15 8 0 15 7 15 15 0 11 12 15 44 15 l45
0 6 43 c18 131 67 495 86 644 20 150 21 174 8 191 -71 98 -323 475 -389 581
l-83 134 29 25 c135 113 244 265 360 507 156 324 201 551 191 955 -6 224 -8
253 -49 488 -24 143 -25 140 62 167 75 24 181 80 227 120 50 43 40 61 -53 96
-217 80 -339 188 -604 534 -223 291 -443 434 -751 489 -116 20 -203 25 -274
16z m230 -985 c194 -129 530 -251 841 -305 l71 -13 22 -96 c39 -176 53 -301
55 -481 l1 -175 -70 -3 -71 -3 -23 -92 c-56 -219 -163 -395 -290 -476 -75 -48
-128 -64 -240 -70 l-104 -6 -50 -184 c-44 -164 -48 -186 -34 -196 9 -6 63 -53
120 -104 l105 -93 10 -71 c5 -40 26 -139 45 -222 53 -218 70 -327 71 -440 1
-81 -3 -106 -17 -128 -16 -25 -22 -27 -55 -22 -164 28 -347 136 -569 336 -100
91 -263 258 -263 271 0 3 49 -7 108 -23 127 -32 347 -52 466 -41 l79 7 -63 75
c-366 437 -594 903 -694 1420 l-23 115 -44 6 c-58 7 -97 29 -143 80 -70 77
-101 183 -73 251 32 76 108 92 182 39 24 -17 49 -31 57 -31 24 0 125 84 193
160 84 93 147 200 182 305 34 105 36 248 5 343 l-20 62 75 -70 c42 -39 112
-95 158 -125z m745 -3571 c24 -30 77 -86 117 -125 l73 -69 -230 0 c-156 0
-230 3 -230 11 0 25 28 60 119 146 53 51 98 92 101 93 3 0 25 -25 50 -56z"/>
<path d="M13367 11726 c-155 -34 -221 -154 -192 -351 35 -228 161 -477 296
-580 209 -162 514 -144 853 50 44 25 82 45 85 45 3 0 7 -37 8 -83 4 -168 73
-360 197 -545 102 -152 87 -144 148 -85 60 56 97 70 139 52 47 -19 71 -69 71
-148 0 -176 -110 -339 -203 -301 -16 7 -32 11 -34 8 -15 -15 -45 -172 -45
-237 0 -76 22 -147 45 -145 5 1 32 38 58 83 55 93 149 193 302 320 171 142
273 271 320 408 89 256 40 625 -113 850 -117 172 -263 244 -602 299 -201 32
-234 42 -425 129 -271 123 -505 201 -695 230 -111 17 -136 17 -213 1z"/>
<path d="M14205 8715 c-332 -36 -798 -131 -908 -186 -78 -39 -229 -170 -920
-796 -392 -355 -402 -363 -479 -393 -162 -63 -324 -90 -868 -145 -405 -41
-514 -56 -620 -87 -63 -19 -83 -30 -122 -70 -64 -66 -113 -165 -105 -215 13
-78 -36 -73 756 -72 388 1 866 4 1062 8 l356 6 104 52 c135 67 348 210 629
422 124 93 228 166 231 163 6 -6 97 -437 166 -782 73 -368 144 -732 151 -782
10 -66 21 -59 -113 -83 -341 -62 -862 -188 -1385 -336 -238 -68 -572 -216
-657 -293 -27 -25 -64 -71 -81 -104 -136 -255 -203 -1057 -188 -2237 4 -286 9
-551 11 -590 2 -38 6 -136 10 -217 8 -169 19 -200 81 -232 34 -18 57 -21 171
-21 72 0 135 3 139 7 3 4 26 137 50 295 44 301 117 739 210 1273 140 799 216
1135 266 1161 21 11 21 11 14 -62 -38 -409 -61 -1107 -52 -1594 9 -482 25
-923 36 -968 19 -87 87 -119 249 -116 136 2 135 2 149 96 139 959 348 2149
433 2462 11 40 18 75 17 76 -2 1 -27 15 -56 29 -83 42 -137 102 -153 169 -18
82 0 124 66 157 50 25 52 25 369 28 176 2 605 -1 955 -7 349 -5 636 -9 637 -8
2 1 -6 58 -16 125 -56 367 -74 661 -67 1092 9 525 65 921 184 1285 100 310
251 654 409 933 l64 113 -59 122 c-90 187 -169 254 -366 307 -72 20 -109 23
-355 26 -186 2 -317 -2 -405 -11z"/>
<path d="M5566 6443 c-20 -32 -36 -62 -36 -68 0 -5 -29 -66 -64 -135 -112
-216 -155 -387 -143 -559 11 -150 64 -279 158 -384 46 -52 146 -134 153 -126
8 9 266 1285 266 1317 0 9 -36 12 -149 12 l-149 0 -36 -57z"/>
<path d="M6215 6488 c-3 -7 -22 -89 -44 -183 -21 -93 -75 -325 -119 -515 -118
-502 -162 -699 -162 -720 0 -32 270 -88 539 -111 223 -19 1083 0 1108 25 3 3
-9 22 -26 43 -74 93 -118 256 -102 380 26 205 113 321 315 422 94 48 312 106
536 144 125 21 141 26 118 35 -41 17 -314 75 -618 132 -151 28 -375 70 -498
93 l-224 42 -46 112 -47 113 -363 0 c-281 0 -364 -3 -367 -12z"/>
<path d="M8215 2348 c-25 -29 -60 -81 -77 -116 l-31 -62 21 -326 c15 -240 24
-329 33 -335 29 -17 36 12 42 169 6 169 14 215 39 220 23 4 61 -81 66 -147 2
-31 10 -63 16 -71 7 -8 18 -44 25 -80 17 -91 39 -132 76 -143 17 -4 91 -11
166 -14 107 -4 152 -2 210 11 149 34 205 86 145 134 -32 25 -33 32 -1 32 33 0
152 44 176 66 42 38 6 84 -82 103 -73 16 -117 14 -177 -9 -29 -11 -68 -20 -87
-20 -40 0 -42 -6 -19 -74 9 -27 13 -51 8 -56 -16 -15 -133 -50 -168 -50 -19 0
-42 7 -51 16 -44 45 -99 196 -176 488 -60 228 -88 316 -99 316 -5 0 -29 -24
-55 -52z"/>
<path d="M11210 1584 c-58 -19 -112 -33 -121 -31 -9 3 -24 0 -34 -6 -10 -5
-32 -11 -49 -12 -55 -4 -400 -54 -445 -65 -67 -17 -100 -38 -118 -75 -16 -33
-15 -35 10 -74 66 -100 324 -158 592 -132 91 9 122 17 182 45 68 33 72 34 78
15 7 -21 36 -24 98 -10 28 7 48 5 74 -6 96 -40 317 -60 476 -43 87 9 121 17
173 43 61 30 66 31 78 15 22 -30 108 -17 227 34 43 18 48 24 64 75 22 69 16
152 -15 212 -16 32 -26 41 -38 36 -39 -15 -102 -16 -160 -2 -65 15 -96 10
-192 -30 -8 -4 -24 -7 -35 -9 -11 -1 -56 -9 -100 -17 -44 -9 -132 -23 -195
-32 -63 -9 -125 -18 -136 -20 -18 -4 -23 1 -28 29 -4 19 -15 45 -26 59 -18 23
-22 24 -60 14 -37 -10 -125 -2 -180 16 -8 3 -62 -11 -120 -29z"/>
</g>
</svg>
